<svg width="270" height="105" viewBox="0 0 270 105" fill="none" xmlns="http://www.w3.org/2000/svg">
<path d="M8.675 18.5H4V15.75H14.45V33.79H14.615C15.3117 31.8467 16.485 30.325 18.135 29.225C19.785 28.125 21.6367 27.575 23.69 27.575C27.43 27.575 30.29 28.7483 32.27 31.095C34.2867 33.4417 35.295 37.09 35.295 42.04C35.295 47.1367 33.9017 51.005 31.115 53.645C28.365 56.2483 24.4233 57.55 19.29 57.55C18.2633 57.55 17.2183 57.4767 16.155 57.33C15.1283 57.22 14.12 57.0733 13.13 56.89C12.1767 56.67 11.315 56.4317 10.545 56.175C9.775 55.9183 9.15167 55.6433 8.675 55.35V18.5ZM21.875 31.26C19.895 31.26 18.3 31.865 17.09 33.075C15.9167 34.2483 15.0367 35.77 14.45 37.64V53.645C15.1833 54.0483 16.0633 54.3783 17.09 54.635C18.1533 54.855 19.29 54.965 20.5 54.965C23.2133 54.965 25.3217 53.865 26.825 51.665C28.3283 49.465 29.08 46.2567 29.08 42.04C29.08 40.5367 28.9517 39.125 28.695 37.805C28.4383 36.485 28.0167 35.3483 27.43 34.395C26.8433 33.405 26.0917 32.635 25.175 32.085C24.295 31.535 23.195 31.26 21.875 31.26ZM54.1742 57H40.2592V54.25H44.3292V18.5H39.6542V15.75H50.1042V54.25H54.1742V57ZM61.2069 45.56C61.2069 43.14 61.2619 40.665 61.3719 38.135C61.4819 35.605 61.5369 33.185 61.5369 30.875H57.4669V28.125H67.2569C67.1835 30.985 67.1102 33.735 67.0369 36.375C67.0002 38.9783 66.9819 41.6917 66.9819 44.515C66.9819 46.0183 67.0552 47.3567 67.2019 48.53C67.3852 49.6667 67.6969 50.6383 68.1369 51.445C68.6135 52.2517 69.2552 52.8567 70.0619 53.26C70.8685 53.6633 71.8952 53.865 73.1419 53.865C74.9752 53.865 76.5152 53.2783 77.7619 52.105C79.0085 50.9317 79.9619 49.355 80.6219 47.375V30.875H76.6069V28.125H86.3969V54.25H90.4669V57H81.2819L80.8969 50.73H80.6219C80.4385 51.5 80.0719 52.2883 79.5219 53.095C79.0085 53.9017 78.3485 54.635 77.5419 55.295C76.7352 55.955 75.8002 56.505 74.7369 56.945C73.6735 57.3483 72.5185 57.55 71.2719 57.55C69.6219 57.55 68.1735 57.3667 66.9269 57C65.6802 56.67 64.6352 56.0467 63.7919 55.13C62.9485 54.2133 62.3069 52.985 61.8669 51.445C61.4269 49.905 61.2069 47.9433 61.2069 45.56ZM119.477 53.205C118.524 54.5617 117.167 55.6433 115.407 56.45C113.684 57.22 111.667 57.605 109.357 57.605C106.937 57.605 104.792 57.2567 102.922 56.56C101.089 55.8267 99.5489 54.8183 98.3022 53.535C97.0556 52.215 96.1022 50.6383 95.4422 48.805C94.8189 46.935 94.5072 44.8633 94.5072 42.59C94.5072 37.6767 95.7356 33.955 98.1922 31.425C100.649 28.8583 104.096 27.575 108.532 27.575C109.999 27.575 111.429 27.7583 112.822 28.125C114.252 28.4917 115.517 29.0967 116.617 29.94C117.717 30.7833 118.597 31.9017 119.257 33.295C119.954 34.6883 120.302 36.4117 120.302 38.465C120.302 39.0883 120.266 39.7483 120.192 40.445C120.119 41.1417 120.009 41.875 119.862 42.645H100.722C100.722 44.2583 100.924 45.725 101.327 47.045C101.767 48.365 102.409 49.5017 103.252 50.455C104.132 51.4083 105.214 52.16 106.497 52.71C107.781 53.2233 109.302 53.48 111.062 53.48C112.492 53.48 113.812 53.2417 115.022 52.765C116.269 52.2883 117.259 51.7383 117.992 51.115L119.477 53.205ZM108.312 30.16C107.176 30.16 106.167 30.325 105.287 30.655C104.444 30.985 103.711 31.535 103.087 32.305C102.464 33.075 101.969 34.1017 101.602 35.385C101.236 36.6317 100.997 38.19 100.887 40.06H114.142C114.179 39.73 114.197 39.4 114.197 39.07C114.234 38.7033 114.252 38.3733 114.252 38.08C114.252 35.66 113.757 33.735 112.767 32.305C111.814 30.875 110.329 30.16 108.312 30.16Z" fill="#B8D3E0"/>
<path d="M124.945 21.58V18.5H142.05V21.58H136.11V53.92H150.74L151.84 52.71V45.12H155.8V57H124.945V53.92H129.95V21.58H124.945ZM175.73 57H159.56V53.92H164.565V21.58H159.56V18.5H175.73V21.58H170.725V53.92H175.73V57ZM180.374 21.58V18.5H192.914L205.894 43.14L219.149 18.5H230.974V21.58H225.969V53.92H230.974V57H215.024V53.92H220.029V29.39C220.066 29.2067 220.084 28.785 220.084 28.125C220.121 27.4283 220.158 26.695 220.194 25.925C220.231 25.0083 220.268 24.0183 220.304 22.955H219.809L217.444 28.84L206.169 48.75H202.814L191.814 28.84L189.394 22.405H188.844V25.815C188.844 26.6583 188.844 27.465 188.844 28.235C188.881 28.9683 188.899 29.3533 188.899 29.39V53.92H193.574V57H180.374V53.92H185.379V21.58H180.374ZM239.685 51.61L240.675 52.93C241.335 53.4067 242.233 53.81 243.37 54.14C244.543 54.4333 245.827 54.58 247.22 54.58C248.54 54.58 249.75 54.4517 250.85 54.195C251.987 53.9017 252.977 53.48 253.82 52.93C254.663 52.38 255.323 51.6833 255.8 50.84C256.277 49.9967 256.515 48.9883 256.515 47.815C256.515 46.3117 256.002 45.065 254.975 44.075C253.985 43.085 252.738 42.205 251.235 41.435C249.732 40.665 248.1 39.9133 246.34 39.18C244.58 38.4467 242.948 37.585 241.445 36.595C239.942 35.605 238.677 34.4133 237.65 33.02C236.66 31.6267 236.165 29.8667 236.165 27.74C236.165 24.6233 237.338 22.2033 239.685 20.48C242.068 18.72 245.277 17.84 249.31 17.84C251.84 17.84 254.022 18.005 255.855 18.335C257.688 18.665 259.247 19.105 260.53 19.655V29.115H257.01V23.175L256.13 21.8C255.433 21.5067 254.425 21.2867 253.105 21.14C251.785 20.9933 250.483 20.92 249.2 20.92C247 20.92 245.277 21.4333 244.03 22.46C242.783 23.45 242.16 24.8617 242.16 26.695C242.16 28.1983 242.655 29.4633 243.645 30.49C244.672 31.48 245.937 32.3783 247.44 33.185C248.943 33.9917 250.575 34.78 252.335 35.55C254.095 36.2833 255.727 37.145 257.23 38.135C258.733 39.0883 259.98 40.2433 260.97 41.6C261.997 42.9567 262.51 44.6433 262.51 46.66C262.51 50.2167 261.135 52.9483 258.385 54.855C255.635 56.725 251.877 57.66 247.11 57.66C244.507 57.66 242.252 57.385 240.345 56.835C238.438 56.285 237.045 55.6983 236.165 55.075V45.065H239.685V51.61Z" fill="white"/>
<path d="M4.864 100H0.768V99.536C1.184 99.344 1.61067 99.216 2.048 99.152V89.664C1.83467 89.6213 1.62133 89.568 1.408 89.504C1.19467 89.4293 0.981333 89.3493 0.768 89.264V88.8H4.864V89.264C4.672 89.3493 4.464 89.4293 4.24 89.504C4.016 89.568 3.79733 89.6213 3.584 89.664V99.152C3.808 99.1947 4.032 99.248 4.256 99.312C4.48 99.376 4.68267 99.4507 4.864 99.536V100ZM14.857 100H11.417V99.6C11.705 99.4507 12.0197 99.3227 12.361 99.216V95.424C12.361 94.6133 12.2437 93.9733 12.009 93.504C11.7743 93.0347 11.3477 92.8 10.729 92.8C10.4623 92.8 10.2117 92.848 9.977 92.944C9.753 93.04 9.55033 93.1733 9.369 93.344C9.19833 93.504 9.049 93.6907 8.921 93.904C8.793 94.1067 8.69167 94.32 8.617 94.544V99.216C8.94767 99.28 9.26767 99.408 9.577 99.6V100H6.121V99.6C6.38767 99.4613 6.73967 99.3333 7.177 99.216V92.928L6.121 92.8V92.384C6.39833 92.2667 6.71833 92.16 7.081 92.064C7.44367 91.968 7.82233 91.8827 8.217 91.808H8.617V93.6H8.633C8.857 93.1093 9.177 92.688 9.593 92.336C10.0197 91.984 10.5317 91.808 11.129 91.808C11.5557 91.808 11.9343 91.8613 12.265 91.968C12.6063 92.064 12.889 92.24 13.113 92.496C13.337 92.752 13.5077 93.0987 13.625 93.536C13.7423 93.9627 13.801 94.5067 13.801 95.168V99.216C14.2277 99.2907 14.5797 99.4187 14.857 99.6V100ZM15.781 96C15.781 95.328 15.8663 94.736 16.037 94.224C16.2183 93.7013 16.4743 93.264 16.805 92.912C17.1357 92.5493 17.5303 92.2773 17.989 92.096C18.4583 91.904 18.9757 91.808 19.541 91.808C20.2023 91.808 20.773 91.9093 21.253 92.112C21.733 92.3147 22.1223 92.6027 22.421 92.976C22.7303 93.3387 22.9543 93.776 23.093 94.288C23.2423 94.8 23.317 95.3707 23.317 96C23.317 97.344 22.9757 98.3787 22.293 99.104C21.6103 99.8293 20.693 100.192 19.541 100.192C18.901 100.192 18.3463 100.096 17.877 99.904C17.4077 99.7013 17.0183 99.4187 16.709 99.056C16.3997 98.6827 16.165 98.24 16.005 97.728C15.8557 97.2053 15.781 96.6293 15.781 96ZM17.317 96C17.317 96.48 17.3597 96.9333 17.445 97.36C17.541 97.7867 17.685 98.16 17.877 98.48C18.0797 98.7893 18.341 99.0347 18.661 99.216C18.981 99.3973 19.365 99.488 19.813 99.488C20.389 99.488 20.8583 99.2053 21.221 98.64C21.5943 98.0747 21.781 97.1947 21.781 96C21.781 95.5093 21.733 95.056 21.637 94.64C21.5517 94.2133 21.413 93.8453 21.221 93.536C21.029 93.216 20.7837 92.9653 20.485 92.784C20.1863 92.6027 19.829 92.512 19.413 92.512C18.7837 92.512 18.277 92.7947 17.893 93.36C17.509 93.9253 17.317 94.8053 17.317 96ZM27.4955 100.192L24.3755 92.8C24.0662 92.6933 23.7835 92.5653 23.5275 92.416V92H26.8715V92.4C26.7328 92.4747 26.5888 92.5493 26.4395 92.624C26.3008 92.688 26.1408 92.7467 25.9595 92.8L27.8155 97.616L28.1355 98.608H28.1675L28.4075 97.6L30.1195 92.8C29.9488 92.7573 29.7888 92.704 29.6395 92.64C29.5008 92.576 29.3675 92.5013 29.2395 92.416V92H31.9595V92.416C31.8528 92.4907 31.7195 92.56 31.5595 92.624C31.4102 92.688 31.2395 92.7467 31.0475 92.8L28.2155 100L27.4955 100.192ZM38.3569 97.904C38.3569 98.1387 38.3622 98.3413 38.3729 98.512C38.3835 98.6827 38.3942 98.864 38.4049 99.056L39.5089 99.216V99.552C39.2422 99.6907 38.9435 99.8133 38.6129 99.92C38.2929 100.027 37.9835 100.107 37.6849 100.16H37.2849C37.1782 99.9147 37.1142 99.648 37.0929 99.36C37.0715 99.0613 37.0555 98.736 37.0449 98.384H36.9649C36.9222 98.5973 36.8369 98.816 36.7089 99.04C36.5915 99.2533 36.4315 99.4453 36.2289 99.616C36.0369 99.7867 35.8075 99.9253 35.5409 100.032C35.2742 100.139 34.9702 100.192 34.6289 100.192C33.9782 100.192 33.4449 99.9947 33.0289 99.6C32.6235 99.2053 32.4209 98.688 32.4209 98.048C32.4209 97.5573 32.5169 97.1573 32.7089 96.848C32.9115 96.528 33.2049 96.2773 33.5889 96.096C33.9729 95.9147 34.4475 95.7867 35.0129 95.712C35.5782 95.6267 36.2342 95.5627 36.9809 95.52C37.0235 95.0613 37.0342 94.6507 37.0129 94.288C37.0022 93.9147 36.9435 93.6 36.8369 93.344C36.7409 93.0773 36.5915 92.8747 36.3889 92.736C36.1969 92.5867 35.9409 92.512 35.6209 92.512C35.4715 92.512 35.3009 92.5227 35.1089 92.544C34.9275 92.5547 34.7462 92.5973 34.5649 92.672L33.8129 94.592H33.3969C33.2902 94.272 33.1942 93.9413 33.1089 93.6C33.0342 93.2587 32.9862 92.9227 32.9649 92.592C33.3702 92.3467 33.8182 92.1547 34.3089 92.016C34.8102 91.8773 35.3649 91.808 35.9729 91.808C36.5169 91.808 36.9489 91.888 37.2689 92.048C37.5995 92.1973 37.8502 92.3947 38.0209 92.64C38.1915 92.8853 38.3035 93.1573 38.3569 93.456C38.4102 93.7547 38.4369 94.0533 38.4369 94.352C38.4369 94.992 38.4209 95.6107 38.3889 96.208C38.3675 96.7947 38.3569 97.36 38.3569 97.904ZM35.2689 99.2C35.5355 99.2 35.7702 99.1467 35.9729 99.04C36.1755 98.9333 36.3462 98.8053 36.4849 98.656C36.6235 98.5067 36.7355 98.3573 36.8209 98.208C36.9062 98.048 36.9649 97.9147 36.9969 97.808V96.128C36.3782 96.128 35.8715 96.16 35.4769 96.224C35.0822 96.288 34.7729 96.3893 34.5489 96.528C34.3249 96.6667 34.1702 96.8427 34.0849 97.056C33.9995 97.2587 33.9569 97.4933 33.9569 97.76C33.9569 98.2187 34.0742 98.576 34.3089 98.832C34.5435 99.0773 34.8635 99.2 35.2689 99.2ZM49.107 100H45.667V99.6C45.955 99.4507 46.2697 99.3227 46.611 99.216V95.424C46.611 94.6133 46.4937 93.9733 46.259 93.504C46.0243 93.0347 45.5977 92.8 44.979 92.8C44.7123 92.8 44.4617 92.848 44.227 92.944C44.003 93.04 43.8003 93.1733 43.619 93.344C43.4483 93.504 43.299 93.6907 43.171 93.904C43.043 94.1067 42.9417 94.32 42.867 94.544V99.216C43.1977 99.28 43.5177 99.408 43.827 99.6V100H40.371V99.6C40.6377 99.4613 40.9897 99.3333 41.427 99.216V92.928L40.371 92.8V92.384C40.6483 92.2667 40.9683 92.16 41.331 92.064C41.6937 91.968 42.0723 91.8827 42.467 91.808H42.867V93.6H42.883C43.107 93.1093 43.427 92.688 43.843 92.336C44.2697 91.984 44.7817 91.808 45.379 91.808C45.8057 91.808 46.1843 91.8613 46.515 91.968C46.8563 92.064 47.139 92.24 47.363 92.496C47.587 92.752 47.7577 93.0987 47.875 93.536C47.9923 93.9627 48.051 94.5067 48.051 95.168V99.216C48.4777 99.2907 48.8297 99.4187 49.107 99.6V100ZM55.343 98.416C55.2897 98.6507 55.199 98.8747 55.071 99.088C54.943 99.3013 54.783 99.4933 54.591 99.664C54.4097 99.824 54.1963 99.952 53.951 100.048C53.7163 100.144 53.4603 100.192 53.183 100.192C52.127 100.192 51.3377 99.856 50.815 99.184C50.2923 98.512 50.031 97.4667 50.031 96.048C50.031 94.6827 50.3617 93.6427 51.023 92.928C51.695 92.2133 52.5963 91.856 53.727 91.856C54.1217 91.856 54.431 91.8773 54.655 91.92C54.879 91.952 55.1243 92.016 55.391 92.112V89.088L54.175 88.96V88.544C54.4843 88.416 54.8417 88.304 55.247 88.208C55.663 88.112 56.0577 88.032 56.431 87.968H56.831V99.088L57.887 99.216V99.552C57.5777 99.7013 57.2577 99.8293 56.927 99.936C56.5963 100.043 56.271 100.117 55.951 100.16H55.551L55.407 98.416H55.343ZM53.503 99.2C54.0257 99.2 54.4417 99.0347 54.751 98.704C55.0603 98.3733 55.2737 97.9253 55.391 97.36V92.848C55.2097 92.7413 54.9963 92.6667 54.751 92.624C54.5057 92.5813 54.191 92.56 53.807 92.56C53.0817 92.56 52.527 92.88 52.143 93.52C51.759 94.1493 51.567 94.992 51.567 96.048C51.567 96.4853 51.6043 96.896 51.679 97.28C51.7537 97.6533 51.871 97.984 52.031 98.272C52.191 98.56 52.3883 98.7893 52.623 98.96C52.8683 99.12 53.1617 99.2 53.503 99.2ZM58.906 96C58.906 95.328 58.9913 94.736 59.162 94.224C59.3433 93.7013 59.5993 93.264 59.93 92.912C60.2607 92.5493 60.6553 92.2773 61.114 92.096C61.5833 91.904 62.1007 91.808 62.666 91.808C63.3273 91.808 63.898 91.9093 64.378 92.112C64.858 92.3147 65.2473 92.6027 65.546 92.976C65.8553 93.3387 66.0793 93.776 66.218 94.288C66.3673 94.8 66.442 95.3707 66.442 96C66.442 97.344 66.1007 98.3787 65.418 99.104C64.7353 99.8293 63.818 100.192 62.666 100.192C62.026 100.192 61.4713 100.096 61.002 99.904C60.5327 99.7013 60.1433 99.4187 59.834 99.056C59.5247 98.6827 59.29 98.24 59.13 97.728C58.9807 97.2053 58.906 96.6293 58.906 96ZM60.442 96C60.442 96.48 60.4847 96.9333 60.57 97.36C60.666 97.7867 60.81 98.16 61.002 98.48C61.2047 98.7893 61.466 99.0347 61.786 99.216C62.106 99.3973 62.49 99.488 62.938 99.488C63.514 99.488 63.9833 99.2053 64.346 98.64C64.7193 98.0747 64.906 97.1947 64.906 96C64.906 95.5093 64.858 95.056 64.762 94.64C64.6767 94.2133 64.538 93.8453 64.346 93.536C64.154 93.216 63.9087 92.9653 63.61 92.784C63.3113 92.6027 62.954 92.512 62.538 92.512C61.9087 92.512 61.402 92.7947 61.018 93.36C60.634 93.9253 60.442 94.8053 60.442 96ZM77.5444 97.904C77.5444 98.1387 77.5497 98.3413 77.5604 98.512C77.571 98.6827 77.5817 98.864 77.5924 99.056L78.6964 99.216V99.552C78.4297 99.6907 78.131 99.8133 77.8004 99.92C77.4804 100.027 77.171 100.107 76.8724 100.16H76.4724C76.3657 99.9147 76.3017 99.648 76.2804 99.36C76.259 99.0613 76.243 98.736 76.2324 98.384H76.1524C76.1097 98.5973 76.0244 98.816 75.8964 99.04C75.779 99.2533 75.619 99.4453 75.4164 99.616C75.2244 99.7867 74.995 99.9253 74.7284 100.032C74.4617 100.139 74.1577 100.192 73.8164 100.192C73.1657 100.192 72.6324 99.9947 72.2164 99.6C71.811 99.2053 71.6084 98.688 71.6084 98.048C71.6084 97.5573 71.7044 97.1573 71.8964 96.848C72.099 96.528 72.3924 96.2773 72.7764 96.096C73.1604 95.9147 73.635 95.7867 74.2004 95.712C74.7657 95.6267 75.4217 95.5627 76.1684 95.52C76.211 95.0613 76.2217 94.6507 76.2004 94.288C76.1897 93.9147 76.131 93.6 76.0244 93.344C75.9284 93.0773 75.779 92.8747 75.5764 92.736C75.3844 92.5867 75.1284 92.512 74.8084 92.512C74.659 92.512 74.4884 92.5227 74.2964 92.544C74.115 92.5547 73.9337 92.5973 73.7524 92.672L73.0004 94.592H72.5844C72.4777 94.272 72.3817 93.9413 72.2964 93.6C72.2217 93.2587 72.1737 92.9227 72.1524 92.592C72.5577 92.3467 73.0057 92.1547 73.4964 92.016C73.9977 91.8773 74.5524 91.808 75.1604 91.808C75.7044 91.808 76.1364 91.888 76.4564 92.048C76.787 92.1973 77.0377 92.3947 77.2084 92.64C77.379 92.8853 77.491 93.1573 77.5444 93.456C77.5977 93.7547 77.6244 94.0533 77.6244 94.352C77.6244 94.992 77.6084 95.6107 77.5764 96.208C77.555 96.7947 77.5444 97.36 77.5444 97.904ZM74.4564 99.2C74.723 99.2 74.9577 99.1467 75.1604 99.04C75.363 98.9333 75.5337 98.8053 75.6724 98.656C75.811 98.5067 75.923 98.3573 76.0084 98.208C76.0937 98.048 76.1524 97.9147 76.1844 97.808V96.128C75.5657 96.128 75.059 96.16 74.6644 96.224C74.2697 96.288 73.9604 96.3893 73.7364 96.528C73.5124 96.6667 73.3577 96.8427 73.2724 97.056C73.187 97.2587 73.1444 97.4933 73.1444 97.76C73.1444 98.2187 73.2617 98.576 73.4964 98.832C73.731 99.0773 74.051 99.2 74.4564 99.2ZM83.6091 96C83.6091 95.328 83.6945 94.736 83.8651 94.224C84.0465 93.7013 84.3025 93.264 84.6331 92.912C84.9638 92.5493 85.3585 92.2773 85.8171 92.096C86.2865 91.904 86.8038 91.808 87.3691 91.808C88.0305 91.808 88.6011 91.9093 89.0811 92.112C89.5611 92.3147 89.9505 92.6027 90.2491 92.976C90.5585 93.3387 90.7825 93.776 90.9211 94.288C91.0705 94.8 91.1451 95.3707 91.1451 96C91.1451 97.344 90.8038 98.3787 90.1211 99.104C89.4385 99.8293 88.5211 100.192 87.3691 100.192C86.7291 100.192 86.1745 100.096 85.7051 99.904C85.2358 99.7013 84.8465 99.4187 84.5371 99.056C84.2278 98.6827 83.9931 98.24 83.8331 97.728C83.6838 97.2053 83.6091 96.6293 83.6091 96ZM85.1451 96C85.1451 96.48 85.1878 96.9333 85.2731 97.36C85.3691 97.7867 85.5131 98.16 85.7051 98.48C85.9078 98.7893 86.1691 99.0347 86.4891 99.216C86.8091 99.3973 87.1931 99.488 87.6411 99.488C88.2171 99.488 88.6865 99.2053 89.0491 98.64C89.4225 98.0747 89.6091 97.1947 89.6091 96C89.6091 95.5093 89.5611 95.056 89.4651 94.64C89.3798 94.2133 89.2411 93.8453 89.0491 93.536C88.8571 93.216 88.6118 92.9653 88.3131 92.784C88.0145 92.6027 87.6571 92.512 87.2411 92.512C86.6118 92.512 86.1051 92.7947 85.7211 93.36C85.3371 93.9253 85.1451 94.8053 85.1451 96ZM95.7009 93.2C95.5835 93.264 95.4342 93.3973 95.2529 93.6C95.0822 93.792 94.9275 94.08 94.7889 94.464V99.216C95.0022 99.2373 95.2155 99.28 95.4289 99.344C95.6422 99.3973 95.8555 99.4827 96.0689 99.6V100H92.2929V99.6C92.4849 99.4933 92.6662 99.4133 92.8369 99.36C93.0075 99.3067 93.1782 99.2587 93.3489 99.216V92.928L92.2929 92.8V92.384C92.6342 92.2347 92.9862 92.1173 93.3489 92.032C93.7115 91.936 94.0582 91.8613 94.3889 91.808H94.7889V93.504H94.8529C94.9489 93.2907 95.0822 93.0773 95.2529 92.864C95.4342 92.6507 95.6369 92.4587 95.8609 92.288C96.0955 92.1173 96.3462 91.9893 96.6129 91.904C96.8902 91.808 97.1729 91.776 97.4609 91.808C97.5355 91.9467 97.5995 92.1013 97.6529 92.272C97.7169 92.432 97.7755 92.6027 97.8289 92.784V93.2H95.7009ZM101.89 91.808C102.466 91.808 102.951 91.8667 103.346 91.984C103.74 92.0907 104.071 92.2613 104.338 92.496C104.967 92.0693 105.623 91.76 106.306 91.568C106.391 91.6853 106.45 91.8293 106.482 92C106.524 92.1707 106.546 92.3307 106.546 92.48L106.338 92.864H104.658C104.924 93.248 105.058 93.7547 105.058 94.384C105.058 95.152 104.786 95.776 104.242 96.256C103.708 96.736 102.924 96.976 101.89 96.976C101.687 96.976 101.522 96.9707 101.394 96.96C101.266 96.9493 101.122 96.9333 100.962 96.912C100.908 97.008 100.844 97.1147 100.77 97.232C100.706 97.3493 100.674 97.472 100.674 97.6C100.674 97.8133 100.796 97.984 101.042 98.112C101.287 98.2293 101.591 98.336 101.954 98.432C102.327 98.528 102.727 98.6293 103.154 98.736C103.591 98.832 103.996 98.9707 104.37 99.152C104.743 99.3227 105.052 99.552 105.298 99.84C105.554 100.117 105.687 100.48 105.698 100.928C105.708 101.312 105.618 101.659 105.426 101.968C105.244 102.277 104.988 102.533 104.658 102.736C104.327 102.949 103.927 103.109 103.458 103.216C102.999 103.333 102.492 103.392 101.938 103.392C100.775 103.392 99.8948 103.195 99.2975 102.8C98.7108 102.405 98.4175 101.909 98.4175 101.312C98.4175 101.024 98.4602 100.773 98.5455 100.56C98.6415 100.347 98.7748 100.16 98.9455 100C99.1162 99.84 99.3295 99.7013 99.5855 99.584C99.8415 99.456 100.135 99.3387 100.466 99.232C100.231 99.1253 100.034 98.9813 99.8735 98.8C99.7242 98.608 99.6495 98.3787 99.6495 98.112C99.6495 97.8667 99.7508 97.6267 99.9535 97.392C100.167 97.1467 100.38 96.9547 100.594 96.816C99.9855 96.656 99.5162 96.352 99.1855 95.904C98.8655 95.456 98.7055 94.9493 98.7055 94.384C98.7055 94.0213 98.7748 93.6853 98.9135 93.376C99.0522 93.056 99.2548 92.7787 99.5215 92.544C99.7882 92.3093 100.119 92.128 100.514 92C100.908 91.872 101.367 91.808 101.89 91.808ZM104.258 101.296C104.258 100.955 104.14 100.683 103.906 100.48C103.682 100.277 103.399 100.112 103.058 99.984C102.716 99.856 102.348 99.7493 101.954 99.664C101.559 99.5787 101.191 99.4827 100.85 99.376C100.444 99.6213 100.178 99.8773 100.049 100.144C99.9215 100.421 99.8575 100.704 99.8575 100.992C99.8575 101.557 100.06 101.979 100.466 102.256C100.871 102.544 101.458 102.688 102.226 102.688C102.62 102.688 102.946 102.651 103.202 102.576C103.468 102.501 103.676 102.4 103.826 102.272C103.986 102.155 104.098 102.011 104.162 101.84C104.226 101.669 104.258 101.488 104.258 101.296ZM100.146 94.384C100.146 94.64 100.172 94.8853 100.226 95.12C100.29 95.344 100.386 95.5413 100.514 95.712C100.652 95.8827 100.834 96.0213 101.058 96.128C101.282 96.224 101.559 96.272 101.89 96.272C102.508 96.272 102.951 96.0907 103.218 95.728C103.484 95.3653 103.618 94.9173 103.618 94.384C103.618 93.808 103.484 93.3547 103.218 93.024C102.962 92.6827 102.519 92.512 101.89 92.512C101.239 92.512 100.786 92.6773 100.53 93.008C100.274 93.328 100.146 93.7867 100.146 94.384ZM112.919 97.904C112.919 98.1387 112.925 98.3413 112.935 98.512C112.946 98.6827 112.957 98.864 112.967 99.056L114.071 99.216V99.552C113.805 99.6907 113.506 99.8133 113.175 99.92C112.855 100.027 112.546 100.107 112.247 100.16H111.847C111.741 99.9147 111.677 99.648 111.655 99.36C111.634 99.0613 111.618 98.736 111.607 98.384H111.527C111.485 98.5973 111.399 98.816 111.271 99.04C111.154 99.2533 110.994 99.4453 110.791 99.616C110.599 99.7867 110.37 99.9253 110.103 100.032C109.837 100.139 109.533 100.192 109.191 100.192C108.541 100.192 108.007 99.9947 107.591 99.6C107.186 99.2053 106.983 98.688 106.983 98.048C106.983 97.5573 107.079 97.1573 107.271 96.848C107.474 96.528 107.767 96.2773 108.151 96.096C108.535 95.9147 109.01 95.7867 109.575 95.712C110.141 95.6267 110.797 95.5627 111.543 95.52C111.586 95.0613 111.597 94.6507 111.575 94.288C111.565 93.9147 111.506 93.6 111.399 93.344C111.303 93.0773 111.154 92.8747 110.951 92.736C110.759 92.5867 110.503 92.512 110.183 92.512C110.034 92.512 109.863 92.5227 109.671 92.544C109.49 92.5547 109.309 92.5973 109.127 92.672L108.375 94.592H107.959C107.853 94.272 107.757 93.9413 107.671 93.6C107.597 93.2587 107.549 92.9227 107.527 92.592C107.933 92.3467 108.381 92.1547 108.871 92.016C109.373 91.8773 109.927 91.808 110.535 91.808C111.079 91.808 111.511 91.888 111.831 92.048C112.162 92.1973 112.413 92.3947 112.583 92.64C112.754 92.8853 112.866 93.1573 112.919 93.456C112.973 93.7547 112.999 94.0533 112.999 94.352C112.999 94.992 112.983 95.6107 112.951 96.208C112.93 96.7947 112.919 97.36 112.919 97.904ZM109.831 99.2C110.098 99.2 110.333 99.1467 110.535 99.04C110.738 98.9333 110.909 98.8053 111.047 98.656C111.186 98.5067 111.298 98.3573 111.383 98.208C111.469 98.048 111.527 97.9147 111.559 97.808V96.128C110.941 96.128 110.434 96.16 110.039 96.224C109.645 96.288 109.335 96.3893 109.111 96.528C108.887 96.6667 108.733 96.8427 108.647 97.056C108.562 97.2587 108.519 97.4933 108.519 97.76C108.519 98.2187 108.637 98.576 108.871 98.832C109.106 99.0773 109.426 99.2 109.831 99.2ZM123.67 100H120.23V99.6C120.518 99.4507 120.832 99.3227 121.174 99.216V95.424C121.174 94.6133 121.056 93.9733 120.822 93.504C120.587 93.0347 120.16 92.8 119.542 92.8C119.275 92.8 119.024 92.848 118.79 92.944C118.566 93.04 118.363 93.1733 118.182 93.344C118.011 93.504 117.862 93.6907 117.734 93.904C117.606 94.1067 117.504 94.32 117.43 94.544V99.216C117.76 99.28 118.08 99.408 118.39 99.6V100H114.934V99.6C115.2 99.4613 115.552 99.3333 115.99 99.216V92.928L114.934 92.8V92.384C115.211 92.2667 115.531 92.16 115.894 92.064C116.256 91.968 116.635 91.8827 117.03 91.808H117.43V93.6H117.446C117.67 93.1093 117.99 92.688 118.406 92.336C118.832 91.984 119.344 91.808 119.942 91.808C120.368 91.808 120.747 91.8613 121.078 91.968C121.419 92.064 121.702 92.24 121.926 92.496C122.15 92.752 122.32 93.0987 122.438 93.536C122.555 93.9627 122.614 94.5067 122.614 95.168V99.216C123.04 99.2907 123.392 99.4187 123.67 99.6V100ZM128.146 100H124.594V99.6C124.754 99.5147 124.919 99.4453 125.09 99.392C125.26 99.328 125.447 99.2693 125.65 99.216V92.928L124.594 92.8V92.384C124.903 92.256 125.239 92.144 125.602 92.048C125.964 91.952 126.327 91.872 126.69 91.808H127.09V99.216C127.303 99.2693 127.495 99.328 127.666 99.392C127.836 99.4453 127.996 99.5147 128.146 99.6V100ZM125.346 89.28C125.346 88.992 125.436 88.7627 125.618 88.592C125.81 88.4213 126.06 88.336 126.37 88.336C126.679 88.336 126.924 88.4213 127.106 88.592C127.287 88.7627 127.378 88.992 127.378 89.28C127.378 89.568 127.287 89.7973 127.106 89.968C126.924 90.128 126.679 90.208 126.37 90.208C126.06 90.208 125.81 90.128 125.618 89.968C125.436 89.7973 125.346 89.568 125.346 89.28ZM135.518 97.264C135.593 97.712 135.646 98.1653 135.678 98.624C135.721 99.072 135.731 99.5307 135.71 100H129.438V99.6L133.998 92.704H130.974L130.27 94.592H129.87C129.785 94.1333 129.731 93.6853 129.71 93.248C129.699 92.8 129.694 92.384 129.694 92H135.71V92.416L131.134 99.296H134.254L135.118 97.264H135.518ZM143.123 97.904C143.123 98.1387 143.128 98.3413 143.139 98.512C143.149 98.6827 143.16 98.864 143.171 99.056L144.275 99.216V99.552C144.008 99.6907 143.709 99.8133 143.379 99.92C143.059 100.027 142.749 100.107 142.451 100.16H142.051C141.944 99.9147 141.88 99.648 141.859 99.36C141.837 99.0613 141.821 98.736 141.811 98.384H141.731C141.688 98.5973 141.603 98.816 141.475 99.04C141.357 99.2533 141.197 99.4453 140.995 99.616C140.803 99.7867 140.573 99.9253 140.307 100.032C140.04 100.139 139.736 100.192 139.395 100.192C138.744 100.192 138.211 99.9947 137.795 99.6C137.389 99.2053 137.187 98.688 137.187 98.048C137.187 97.5573 137.283 97.1573 137.475 96.848C137.677 96.528 137.971 96.2773 138.355 96.096C138.739 95.9147 139.213 95.7867 139.779 95.712C140.344 95.6267 141 95.5627 141.747 95.52C141.789 95.0613 141.8 94.6507 141.779 94.288C141.768 93.9147 141.709 93.6 141.603 93.344C141.507 93.0773 141.357 92.8747 141.155 92.736C140.963 92.5867 140.707 92.512 140.387 92.512C140.237 92.512 140.067 92.5227 139.875 92.544C139.693 92.5547 139.512 92.5973 139.331 92.672L138.579 94.592H138.163C138.056 94.272 137.96 93.9413 137.875 93.6C137.8 93.2587 137.752 92.9227 137.731 92.592C138.136 92.3467 138.584 92.1547 139.075 92.016C139.576 91.8773 140.131 91.808 140.739 91.808C141.283 91.808 141.715 91.888 142.035 92.048C142.365 92.1973 142.616 92.3947 142.787 92.64C142.957 92.8853 143.069 93.1573 143.123 93.456C143.176 93.7547 143.203 94.0533 143.203 94.352C143.203 94.992 143.187 95.6107 143.155 96.208C143.133 96.7947 143.123 97.36 143.123 97.904ZM140.035 99.2C140.301 99.2 140.536 99.1467 140.739 99.04C140.941 98.9333 141.112 98.8053 141.251 98.656C141.389 98.5067 141.501 98.3573 141.587 98.208C141.672 98.048 141.731 97.9147 141.763 97.808V96.128C141.144 96.128 140.637 96.16 140.243 96.224C139.848 96.288 139.539 96.3893 139.315 96.528C139.091 96.6667 138.936 96.8427 138.851 97.056C138.765 97.2587 138.723 97.4933 138.723 97.76C138.723 98.2187 138.84 98.576 139.075 98.832C139.309 99.0773 139.629 99.2 140.035 99.2ZM151.473 98.88C151.27 99.264 150.95 99.5787 150.513 99.824C150.075 100.069 149.553 100.192 148.945 100.192L148.609 101.088C149.195 101.109 149.617 101.216 149.873 101.408C150.139 101.611 150.283 101.883 150.305 102.224C150.315 102.533 150.235 102.8 150.065 103.024C149.905 103.259 149.697 103.451 149.441 103.6C149.185 103.749 148.902 103.856 148.593 103.92C148.283 103.995 147.985 104.027 147.697 104.016V103.536C148.102 103.483 148.427 103.376 148.673 103.216C148.918 103.056 149.035 102.811 149.025 102.48C149.014 102.213 148.902 102.021 148.689 101.904C148.486 101.787 148.161 101.712 147.713 101.68L148.257 100.128C147.265 99.9787 146.523 99.536 146.033 98.8C145.542 98.064 145.297 97.1307 145.297 96C145.297 94.6453 145.627 93.6107 146.289 92.896C146.95 92.1707 147.851 91.808 148.993 91.808C149.515 91.808 149.979 91.856 150.385 91.952C150.801 92.0373 151.153 92.1547 151.441 92.304C151.409 92.656 151.35 93.0507 151.265 93.488C151.179 93.9253 151.073 94.288 150.945 94.576H150.513L149.841 92.672C149.766 92.6187 149.681 92.5813 149.585 92.56C149.489 92.528 149.329 92.512 149.105 92.512C148.379 92.512 147.819 92.7787 147.425 93.312C147.03 93.8347 146.833 94.7253 146.833 95.984C146.833 96.3893 146.886 96.784 146.993 97.168C147.11 97.552 147.281 97.8987 147.505 98.208C147.739 98.5067 148.027 98.7467 148.369 98.928C148.721 99.1093 149.126 99.2 149.585 99.2C149.958 99.2 150.283 99.1467 150.561 99.04C150.838 98.9333 151.073 98.8053 151.265 98.656L151.473 98.88ZM158.654 97.904C158.654 98.1387 158.659 98.3413 158.67 98.512C158.68 98.6827 158.691 98.864 158.702 99.056L159.806 99.216V99.552C159.539 99.6907 159.24 99.8133 158.91 99.92C158.59 100.027 158.28 100.107 157.982 100.16H157.582C157.475 99.9147 157.411 99.648 157.39 99.36C157.368 99.0613 157.352 98.736 157.342 98.384H157.262C157.219 98.5973 157.134 98.816 157.006 99.04C156.888 99.2533 156.728 99.4453 156.526 99.616C156.334 99.7867 156.104 99.9253 155.838 100.032C155.571 100.139 155.267 100.192 154.926 100.192C154.275 100.192 153.742 99.9947 153.326 99.6C152.92 99.2053 152.718 98.688 152.718 98.048C152.718 97.5573 152.814 97.1573 153.006 96.848C153.208 96.528 153.502 96.2773 153.886 96.096C154.27 95.9147 154.744 95.7867 155.31 95.712C155.875 95.6267 156.531 95.5627 157.278 95.52C157.32 95.0613 157.331 94.6507 157.31 94.288C157.299 93.9147 157.24 93.6 157.134 93.344C157.038 93.0773 156.888 92.8747 156.686 92.736C156.494 92.5867 156.238 92.512 155.918 92.512C155.768 92.512 155.598 92.5227 155.406 92.544C155.224 92.5547 155.043 92.5973 154.862 92.672L154.11 94.592H153.694C153.587 94.272 153.491 93.9413 153.406 93.6C153.331 93.2587 153.283 92.9227 153.262 92.592C153.667 92.3467 154.115 92.1547 154.606 92.016C155.107 91.8773 155.662 91.808 156.27 91.808C156.814 91.808 157.246 91.888 157.566 92.048C157.896 92.1973 158.147 92.3947 158.318 92.64C158.488 92.8853 158.6 93.1573 158.654 93.456C158.707 93.7547 158.734 94.0533 158.734 94.352C158.734 94.992 158.718 95.6107 158.686 96.208C158.664 96.7947 158.654 97.36 158.654 97.904ZM155.566 99.2C155.832 99.2 156.067 99.1467 156.27 99.04C156.472 98.9333 156.643 98.8053 156.782 98.656C156.92 98.5067 157.032 98.3573 157.118 98.208C157.203 98.048 157.262 97.9147 157.294 97.808V96.128C156.675 96.128 156.168 96.16 155.774 96.224C155.379 96.288 155.07 96.3893 154.846 96.528C154.622 96.6667 154.467 96.8427 154.382 97.056C154.296 97.2587 154.254 97.4933 154.254 97.76C154.254 98.2187 154.371 98.576 154.606 98.832C154.84 99.0773 155.16 99.2 155.566 99.2ZM158.43 89.248C158.088 89.5893 157.774 89.8293 157.486 89.968C157.208 90.096 156.947 90.16 156.702 90.16C156.51 90.16 156.328 90.1333 156.158 90.08C155.987 90.016 155.822 89.952 155.662 89.888C155.502 89.824 155.342 89.7653 155.182 89.712C155.032 89.648 154.878 89.616 154.718 89.616C154.579 89.616 154.435 89.6427 154.286 89.696C154.147 89.7493 153.992 89.8507 153.822 90L153.518 89.552C153.912 89.1787 154.264 88.928 154.574 88.8C154.883 88.672 155.16 88.608 155.406 88.608C155.598 88.608 155.774 88.6347 155.934 88.688C156.104 88.7413 156.264 88.8 156.414 88.864C156.563 88.928 156.712 88.9867 156.862 89.04C157.022 89.0933 157.182 89.12 157.342 89.12C157.48 89.12 157.619 89.0987 157.758 89.056C157.896 89.0027 158.051 88.9173 158.222 88.8L158.43 89.248ZM160.828 96C160.828 95.328 160.913 94.736 161.084 94.224C161.265 93.7013 161.521 93.264 161.852 92.912C162.183 92.5493 162.577 92.2773 163.036 92.096C163.505 91.904 164.023 91.808 164.588 91.808C165.249 91.808 165.82 91.9093 166.3 92.112C166.78 92.3147 167.169 92.6027 167.468 92.976C167.777 93.3387 168.001 93.776 168.14 94.288C168.289 94.8 168.364 95.3707 168.364 96C168.364 97.344 168.023 98.3787 167.34 99.104C166.657 99.8293 165.74 100.192 164.588 100.192C163.948 100.192 163.393 100.096 162.924 99.904C162.455 99.7013 162.065 99.4187 161.756 99.056C161.447 98.6827 161.212 98.24 161.052 97.728C160.903 97.2053 160.828 96.6293 160.828 96ZM162.364 96C162.364 96.48 162.407 96.9333 162.492 97.36C162.588 97.7867 162.732 98.16 162.924 98.48C163.127 98.7893 163.388 99.0347 163.708 99.216C164.028 99.3973 164.412 99.488 164.86 99.488C165.436 99.488 165.905 99.2053 166.268 98.64C166.641 98.0747 166.828 97.1947 166.828 96C166.828 95.5093 166.78 95.056 166.684 94.64C166.599 94.2133 166.46 93.8453 166.268 93.536C166.076 93.216 165.831 92.9653 165.532 92.784C165.233 92.6027 164.876 92.512 164.46 92.512C163.831 92.512 163.324 92.7947 162.94 93.36C162.556 93.9253 162.364 94.8053 162.364 96ZM177.114 100H173.562V99.6C173.914 99.4293 174.266 99.3013 174.618 99.216V89.088L173.402 88.96V88.544C173.68 88.416 174.026 88.304 174.442 88.208C174.858 88.112 175.264 88.032 175.658 87.968H176.058V99.216C176.41 99.3013 176.762 99.4293 177.114 99.6V100ZM184.279 97.904C184.279 98.1387 184.284 98.3413 184.295 98.512C184.305 98.6827 184.316 98.864 184.327 99.056L185.431 99.216V99.552C185.164 99.6907 184.865 99.8133 184.535 99.92C184.215 100.027 183.905 100.107 183.607 100.16H183.207C183.1 99.9147 183.036 99.648 183.015 99.36C182.993 99.0613 182.977 98.736 182.967 98.384H182.887C182.844 98.5973 182.759 98.816 182.631 99.04C182.513 99.2533 182.353 99.4453 182.151 99.616C181.959 99.7867 181.729 99.9253 181.463 100.032C181.196 100.139 180.892 100.192 180.551 100.192C179.9 100.192 179.367 99.9947 178.951 99.6C178.545 99.2053 178.343 98.688 178.343 98.048C178.343 97.5573 178.439 97.1573 178.631 96.848C178.833 96.528 179.127 96.2773 179.511 96.096C179.895 95.9147 180.369 95.7867 180.935 95.712C181.5 95.6267 182.156 95.5627 182.903 95.52C182.945 95.0613 182.956 94.6507 182.935 94.288C182.924 93.9147 182.865 93.6 182.759 93.344C182.663 93.0773 182.513 92.8747 182.311 92.736C182.119 92.5867 181.863 92.512 181.543 92.512C181.393 92.512 181.223 92.5227 181.031 92.544C180.849 92.5547 180.668 92.5973 180.487 92.672L179.735 94.592H179.319C179.212 94.272 179.116 93.9413 179.031 93.6C178.956 93.2587 178.908 92.9227 178.887 92.592C179.292 92.3467 179.74 92.1547 180.231 92.016C180.732 91.8773 181.287 91.808 181.895 91.808C182.439 91.808 182.871 91.888 183.191 92.048C183.521 92.1973 183.772 92.3947 183.943 92.64C184.113 92.8853 184.225 93.1573 184.279 93.456C184.332 93.7547 184.359 94.0533 184.359 94.352C184.359 94.992 184.343 95.6107 184.311 96.208C184.289 96.7947 184.279 97.36 184.279 97.904ZM181.191 99.2C181.457 99.2 181.692 99.1467 181.895 99.04C182.097 98.9333 182.268 98.8053 182.407 98.656C182.545 98.5067 182.657 98.3573 182.743 98.208C182.828 98.048 182.887 97.9147 182.919 97.808V96.128C182.3 96.128 181.793 96.16 181.399 96.224C181.004 96.288 180.695 96.3893 180.471 96.528C180.247 96.6667 180.092 96.8427 180.007 97.056C179.921 97.2587 179.879 97.4933 179.879 97.76C179.879 98.2187 179.996 98.576 180.231 98.832C180.465 99.0773 180.785 99.2 181.191 99.2ZM187.029 89.088L185.813 88.96V88.544C186.144 88.4053 186.512 88.2933 186.917 88.208C187.333 88.1227 187.717 88.0427 188.069 87.968H188.469V93.584H188.501C188.682 93.04 188.986 92.608 189.413 92.288C189.85 91.968 190.33 91.808 190.853 91.808C191.824 91.808 192.565 92.1387 193.077 92.8C193.6 93.4613 193.861 94.48 193.861 95.856C193.861 97.264 193.504 98.3307 192.789 99.056C192.085 99.7813 191.066 100.144 189.733 100.144C189.466 100.144 189.2 100.123 188.933 100.08C188.666 100.048 188.41 100.005 188.165 99.952C187.92 99.8987 187.696 99.8347 187.493 99.76C187.301 99.6853 187.146 99.6107 187.029 99.536V89.088ZM190.421 92.8C189.909 92.8 189.493 92.976 189.173 93.328C188.853 93.6693 188.618 94.1067 188.469 94.64V99.104C188.661 99.2107 188.896 99.296 189.173 99.36C189.45 99.4133 189.744 99.44 190.053 99.44C190.757 99.44 191.312 99.136 191.717 98.528C192.122 97.9093 192.325 97.0187 192.325 95.856C192.325 95.44 192.288 95.0453 192.213 94.672C192.149 94.2987 192.037 93.9733 191.877 93.696C191.728 93.4187 191.53 93.2 191.285 93.04C191.05 92.88 190.762 92.8 190.421 92.8ZM195.172 96C195.172 95.328 195.257 94.736 195.428 94.224C195.609 93.7013 195.865 93.264 196.196 92.912C196.526 92.5493 196.921 92.2773 197.38 92.096C197.849 91.904 198.366 91.808 198.932 91.808C199.593 91.808 200.164 91.9093 200.644 92.112C201.124 92.3147 201.513 92.6027 201.812 92.976C202.121 93.3387 202.345 93.776 202.484 94.288C202.633 94.8 202.708 95.3707 202.708 96C202.708 97.344 202.366 98.3787 201.684 99.104C201.001 99.8293 200.084 100.192 198.932 100.192C198.292 100.192 197.737 100.096 197.268 99.904C196.798 99.7013 196.409 99.4187 196.1 99.056C195.79 98.6827 195.556 98.24 195.396 97.728C195.246 97.2053 195.172 96.6293 195.172 96ZM196.708 96C196.708 96.48 196.75 96.9333 196.836 97.36C196.932 97.7867 197.076 98.16 197.268 98.48C197.47 98.7893 197.732 99.0347 198.052 99.216C198.372 99.3973 198.756 99.488 199.204 99.488C199.78 99.488 200.249 99.2053 200.612 98.64C200.985 98.0747 201.172 97.1947 201.172 96C201.172 95.5093 201.124 95.056 201.028 94.64C200.942 94.2133 200.804 93.8453 200.612 93.536C200.42 93.216 200.174 92.9653 199.876 92.784C199.577 92.6027 199.22 92.512 198.804 92.512C198.174 92.512 197.668 92.7947 197.284 93.36C196.9 93.9253 196.708 94.8053 196.708 96ZM207.263 93.2C207.146 93.264 206.997 93.3973 206.815 93.6C206.645 93.792 206.49 94.08 206.351 94.464V99.216C206.565 99.2373 206.778 99.28 206.991 99.344C207.205 99.3973 207.418 99.4827 207.631 99.6V100H203.855V99.6C204.047 99.4933 204.229 99.4133 204.399 99.36C204.57 99.3067 204.741 99.2587 204.911 99.216V92.928L203.855 92.8V92.384C204.197 92.2347 204.549 92.1173 204.911 92.032C205.274 91.936 205.621 91.8613 205.951 91.808H206.351V93.504H206.415C206.511 93.2907 206.645 93.0773 206.815 92.864C206.997 92.6507 207.199 92.4587 207.423 92.288C207.658 92.1173 207.909 91.9893 208.175 91.904C208.453 91.808 208.735 91.776 209.023 91.808C209.098 91.9467 209.162 92.1013 209.215 92.272C209.279 92.432 209.338 92.6027 209.391 92.784V93.2H207.263ZM216.06 97.904C216.06 98.1387 216.065 98.3413 216.076 98.512C216.087 98.6827 216.097 98.864 216.108 99.056L217.212 99.216V99.552C216.945 99.6907 216.647 99.8133 216.316 99.92C215.996 100.027 215.687 100.107 215.388 100.16H214.988C214.881 99.9147 214.817 99.648 214.796 99.36C214.775 99.0613 214.759 98.736 214.748 98.384H214.668C214.625 98.5973 214.54 98.816 214.412 99.04C214.295 99.2533 214.135 99.4453 213.932 99.616C213.74 99.7867 213.511 99.9253 213.244 100.032C212.977 100.139 212.673 100.192 212.332 100.192C211.681 100.192 211.148 99.9947 210.732 99.6C210.327 99.2053 210.124 98.688 210.124 98.048C210.124 97.5573 210.22 97.1573 210.412 96.848C210.615 96.528 210.908 96.2773 211.292 96.096C211.676 95.9147 212.151 95.7867 212.716 95.712C213.281 95.6267 213.937 95.5627 214.684 95.52C214.727 95.0613 214.737 94.6507 214.716 94.288C214.705 93.9147 214.647 93.6 214.54 93.344C214.444 93.0773 214.295 92.8747 214.092 92.736C213.9 92.5867 213.644 92.512 213.324 92.512C213.175 92.512 213.004 92.5227 212.812 92.544C212.631 92.5547 212.449 92.5973 212.268 92.672L211.516 94.592H211.1C210.993 94.272 210.897 93.9413 210.812 93.6C210.737 93.2587 210.689 92.9227 210.668 92.592C211.073 92.3467 211.521 92.1547 212.012 92.016C212.513 91.8773 213.068 91.808 213.676 91.808C214.22 91.808 214.652 91.888 214.972 92.048C215.303 92.1973 215.553 92.3947 215.724 92.64C215.895 92.8853 216.007 93.1573 216.06 93.456C216.113 93.7547 216.14 94.0533 216.14 94.352C216.14 94.992 216.124 95.6107 216.092 96.208C216.071 96.7947 216.06 97.36 216.06 97.904ZM212.972 99.2C213.239 99.2 213.473 99.1467 213.676 99.04C213.879 98.9333 214.049 98.8053 214.188 98.656C214.327 98.5067 214.439 98.3573 214.524 98.208C214.609 98.048 214.668 97.9147 214.7 97.808V96.128C214.081 96.128 213.575 96.16 213.18 96.224C212.785 96.288 212.476 96.3893 212.252 96.528C212.028 96.6667 211.873 96.8427 211.788 97.056C211.703 97.2587 211.66 97.4933 211.66 97.76C211.66 98.2187 211.777 98.576 212.012 98.832C212.247 99.0773 212.567 99.2 212.972 99.2ZM217.818 92.384C218.223 92.128 218.65 91.9467 219.098 91.84V90.48C219.237 90.3627 219.397 90.2613 219.578 90.176C219.77 90.08 219.957 89.9893 220.138 89.904H220.538V92H222.938V92.8H220.538V97.44C220.538 98.08 220.639 98.5333 220.842 98.8C221.045 99.0667 221.349 99.2 221.754 99.2C221.946 99.2 222.186 99.1893 222.474 99.168C222.762 99.136 223.007 99.0827 223.21 99.008L223.322 99.248C223.237 99.344 223.114 99.4453 222.954 99.552C222.805 99.6587 222.629 99.76 222.426 99.856C222.234 99.952 222.021 100.032 221.786 100.096C221.551 100.16 221.311 100.192 221.066 100.192C220.426 100.192 219.935 100.011 219.594 99.648C219.263 99.2853 219.098 98.6987 219.098 97.888V92.8H217.818V92.384ZM224.172 96C224.172 95.328 224.257 94.736 224.428 94.224C224.609 93.7013 224.865 93.264 225.196 92.912C225.526 92.5493 225.921 92.2773 226.38 92.096C226.849 91.904 227.366 91.808 227.932 91.808C228.593 91.808 229.164 91.9093 229.644 92.112C230.124 92.3147 230.513 92.6027 230.812 92.976C231.121 93.3387 231.345 93.776 231.484 94.288C231.633 94.8 231.708 95.3707 231.708 96C231.708 97.344 231.366 98.3787 230.684 99.104C230.001 99.8293 229.084 100.192 227.932 100.192C227.292 100.192 226.737 100.096 226.268 99.904C225.798 99.7013 225.409 99.4187 225.1 99.056C224.79 98.6827 224.556 98.24 224.396 97.728C224.246 97.2053 224.172 96.6293 224.172 96ZM225.708 96C225.708 96.48 225.75 96.9333 225.836 97.36C225.932 97.7867 226.076 98.16 226.268 98.48C226.47 98.7893 226.732 99.0347 227.052 99.216C227.372 99.3973 227.756 99.488 228.204 99.488C228.78 99.488 229.249 99.2053 229.612 98.64C229.985 98.0747 230.172 97.1947 230.172 96C230.172 95.5093 230.124 95.056 230.028 94.64C229.942 94.2133 229.804 93.8453 229.612 93.536C229.42 93.216 229.174 92.9653 228.876 92.784C228.577 92.6027 228.22 92.512 227.804 92.512C227.174 92.512 226.668 92.7947 226.284 93.36C225.9 93.9253 225.708 94.8053 225.708 96ZM236.263 93.2C236.146 93.264 235.997 93.3973 235.815 93.6C235.645 93.792 235.49 94.08 235.351 94.464V99.216C235.565 99.2373 235.778 99.28 235.991 99.344C236.205 99.3973 236.418 99.4827 236.631 99.6V100H232.855V99.6C233.047 99.4933 233.229 99.4133 233.399 99.36C233.57 99.3067 233.741 99.2587 233.911 99.216V92.928L232.855 92.8V92.384C233.197 92.2347 233.549 92.1173 233.911 92.032C234.274 91.936 234.621 91.8613 234.951 91.808H235.351V93.504H235.415C235.511 93.2907 235.645 93.0773 235.815 92.864C235.997 92.6507 236.199 92.4587 236.423 92.288C236.658 92.1173 236.909 91.9893 237.175 91.904C237.453 91.808 237.735 91.776 238.023 91.808C238.098 91.9467 238.162 92.1013 238.215 92.272C238.279 92.432 238.338 92.6027 238.391 92.784V93.2H236.263ZM242.708 100H239.156V99.6C239.316 99.5147 239.481 99.4453 239.652 99.392C239.823 99.328 240.009 99.2693 240.212 99.216V92.928L239.156 92.8V92.384C239.465 92.256 239.801 92.144 240.164 92.048C240.527 91.952 240.889 91.872 241.252 91.808H241.652V99.216C241.865 99.2693 242.057 99.328 242.228 99.392C242.399 99.4453 242.559 99.5147 242.708 99.6V100ZM239.908 89.28C239.908 88.992 239.999 88.7627 240.18 88.592C240.372 88.4213 240.623 88.336 240.932 88.336C241.241 88.336 241.487 88.4213 241.668 88.592C241.849 88.7627 241.94 88.992 241.94 89.28C241.94 89.568 241.849 89.7973 241.668 89.968C241.487 90.128 241.241 90.208 240.932 90.208C240.623 90.208 240.372 90.128 240.18 89.968C239.999 89.7973 239.908 89.568 239.908 89.28ZM249.873 97.904C249.873 98.1387 249.878 98.3413 249.889 98.512C249.899 98.6827 249.91 98.864 249.921 99.056L251.025 99.216V99.552C250.758 99.6907 250.459 99.8133 250.129 99.92C249.809 100.027 249.499 100.107 249.201 100.16H248.801C248.694 99.9147 248.63 99.648 248.609 99.36C248.587 99.0613 248.571 98.736 248.561 98.384H248.481C248.438 98.5973 248.353 98.816 248.225 99.04C248.107 99.2533 247.947 99.4453 247.745 99.616C247.553 99.7867 247.323 99.9253 247.057 100.032C246.79 100.139 246.486 100.192 246.145 100.192C245.494 100.192 244.961 99.9947 244.545 99.6C244.139 99.2053 243.937 98.688 243.937 98.048C243.937 97.5573 244.033 97.1573 244.225 96.848C244.427 96.528 244.721 96.2773 245.105 96.096C245.489 95.9147 245.963 95.7867 246.529 95.712C247.094 95.6267 247.75 95.5627 248.497 95.52C248.539 95.0613 248.55 94.6507 248.529 94.288C248.518 93.9147 248.459 93.6 248.353 93.344C248.257 93.0773 248.107 92.8747 247.905 92.736C247.713 92.5867 247.457 92.512 247.137 92.512C246.987 92.512 246.817 92.5227 246.625 92.544C246.443 92.5547 246.262 92.5973 246.081 92.672L245.329 94.592H244.913C244.806 94.272 244.71 93.9413 244.625 93.6C244.55 93.2587 244.502 92.9227 244.481 92.592C244.886 92.3467 245.334 92.1547 245.825 92.016C246.326 91.8773 246.881 91.808 247.489 91.808C248.033 91.808 248.465 91.888 248.785 92.048C249.115 92.1973 249.366 92.3947 249.537 92.64C249.707 92.8853 249.819 93.1573 249.873 93.456C249.926 93.7547 249.953 94.0533 249.953 94.352C249.953 94.992 249.937 95.6107 249.905 96.208C249.883 96.7947 249.873 97.36 249.873 97.904ZM246.785 99.2C247.051 99.2 247.286 99.1467 247.489 99.04C247.691 98.9333 247.862 98.8053 248.001 98.656C248.139 98.5067 248.251 98.3573 248.337 98.208C248.422 98.048 248.481 97.9147 248.513 97.808V96.128C247.894 96.128 247.387 96.16 246.993 96.224C246.598 96.288 246.289 96.3893 246.065 96.528C245.841 96.6667 245.686 96.8427 245.601 97.056C245.515 97.2587 245.473 97.4933 245.473 97.76C245.473 98.2187 245.59 98.576 245.825 98.832C246.059 99.0773 246.379 99.2 246.785 99.2ZM255.599 100H252.047V99.6C252.399 99.4293 252.751 99.3013 253.103 99.216V89.088L251.887 88.96V88.544C252.164 88.416 252.511 88.304 252.927 88.208C253.343 88.112 253.748 88.032 254.143 87.968H254.543V99.216C254.895 99.3013 255.247 99.4293 255.599 99.6V100ZM257.339 99.088C257.339 98.768 257.44 98.512 257.643 98.32C257.846 98.128 258.107 98.032 258.427 98.032C258.758 98.032 259.024 98.128 259.227 98.32C259.43 98.512 259.531 98.768 259.531 99.088C259.531 99.3973 259.43 99.648 259.227 99.84C259.024 100.032 258.758 100.128 258.427 100.128C258.107 100.128 257.846 100.032 257.643 99.84C257.44 99.648 257.339 99.3973 257.339 99.088Z" fill="white"/>
</svg>
