<svg width="390" height="844" viewBox="0 0 390 844" fill="none" xmlns="http://www.w3.org/2000/svg">
<rect width="390" height="844" fill="#355666"/>
<path d="M65.675 357.5H61V354.75H71.45V372.79H71.615C72.3117 370.847 73.485 369.325 75.135 368.225C76.785 367.125 78.6367 366.575 80.69 366.575C84.43 366.575 87.29 367.748 89.27 370.095C91.2867 372.442 92.295 376.09 92.295 381.04C92.295 386.137 90.9017 390.005 88.115 392.645C85.365 395.248 81.4233 396.55 76.29 396.55C75.2633 396.55 74.2183 396.477 73.155 396.33C72.1283 396.22 71.12 396.073 70.13 395.89C69.1767 395.67 68.315 395.432 67.545 395.175C66.775 394.918 66.1517 394.643 65.675 394.35V357.5ZM78.875 370.26C76.895 370.26 75.3 370.865 74.09 372.075C72.9167 373.248 72.0367 374.77 71.45 376.64V392.645C72.1833 393.048 73.0633 393.378 74.09 393.635C75.1533 393.855 76.29 393.965 77.5 393.965C80.2133 393.965 82.3217 392.865 83.825 390.665C85.3283 388.465 86.08 385.257 86.08 381.04C86.08 379.537 85.9517 378.125 85.695 376.805C85.4383 375.485 85.0167 374.348 84.43 373.395C83.8433 372.405 83.0917 371.635 82.175 371.085C81.295 370.535 80.195 370.26 78.875 370.26ZM111.174 396H97.2592V393.25H101.329V357.5H96.6542V354.75H107.104V393.25H111.174V396ZM118.207 384.56C118.207 382.14 118.262 379.665 118.372 377.135C118.482 374.605 118.537 372.185 118.537 369.875H114.467V367.125H124.257C124.184 369.985 124.11 372.735 124.037 375.375C124 377.978 123.982 380.692 123.982 383.515C123.982 385.018 124.055 386.357 124.202 387.53C124.385 388.667 124.697 389.638 125.137 390.445C125.614 391.252 126.255 391.857 127.062 392.26C127.869 392.663 128.895 392.865 130.142 392.865C131.975 392.865 133.515 392.278 134.762 391.105C136.009 389.932 136.962 388.355 137.622 386.375V369.875H133.607V367.125H143.397V393.25H147.467V396H138.282L137.897 389.73H137.622C137.439 390.5 137.072 391.288 136.522 392.095C136.009 392.902 135.349 393.635 134.542 394.295C133.735 394.955 132.8 395.505 131.737 395.945C130.674 396.348 129.519 396.55 128.272 396.55C126.622 396.55 125.174 396.367 123.927 396C122.68 395.67 121.635 395.047 120.792 394.13C119.949 393.213 119.307 391.985 118.867 390.445C118.427 388.905 118.207 386.943 118.207 384.56ZM176.477 392.205C175.524 393.562 174.167 394.643 172.407 395.45C170.684 396.22 168.667 396.605 166.357 396.605C163.937 396.605 161.792 396.257 159.922 395.56C158.089 394.827 156.549 393.818 155.302 392.535C154.056 391.215 153.102 389.638 152.442 387.805C151.819 385.935 151.507 383.863 151.507 381.59C151.507 376.677 152.736 372.955 155.192 370.425C157.649 367.858 161.096 366.575 165.532 366.575C166.999 366.575 168.429 366.758 169.822 367.125C171.252 367.492 172.517 368.097 173.617 368.94C174.717 369.783 175.597 370.902 176.257 372.295C176.954 373.688 177.302 375.412 177.302 377.465C177.302 378.088 177.266 378.748 177.192 379.445C177.119 380.142 177.009 380.875 176.862 381.645H157.722C157.722 383.258 157.924 384.725 158.327 386.045C158.767 387.365 159.409 388.502 160.252 389.455C161.132 390.408 162.214 391.16 163.497 391.71C164.781 392.223 166.302 392.48 168.062 392.48C169.492 392.48 170.812 392.242 172.022 391.765C173.269 391.288 174.259 390.738 174.992 390.115L176.477 392.205ZM165.312 369.16C164.176 369.16 163.167 369.325 162.287 369.655C161.444 369.985 160.711 370.535 160.087 371.305C159.464 372.075 158.969 373.102 158.602 374.385C158.236 375.632 157.997 377.19 157.887 379.06H171.142C171.179 378.73 171.197 378.4 171.197 378.07C171.234 377.703 171.252 377.373 171.252 377.08C171.252 374.66 170.757 372.735 169.767 371.305C168.814 369.875 167.329 369.16 165.312 369.16Z" fill="#B8D3E0"/>
<path d="M181.945 360.58V357.5H199.05V360.58H193.11V392.92H207.74L208.84 391.71V384.12H212.8V396H181.945V392.92H186.95V360.58H181.945ZM232.73 396H216.56V392.92H221.565V360.58H216.56V357.5H232.73V360.58H227.725V392.92H232.73V396ZM237.374 360.58V357.5H249.914L262.894 382.14L276.149 357.5H287.974V360.58H282.969V392.92H287.974V396H272.024V392.92H277.029V368.39C277.066 368.207 277.084 367.785 277.084 367.125C277.121 366.428 277.158 365.695 277.194 364.925C277.231 364.008 277.268 363.018 277.304 361.955H276.809L274.444 367.84L263.169 387.75H259.814L248.814 367.84L246.394 361.405H245.844V364.815C245.844 365.658 245.844 366.465 245.844 367.235C245.881 367.968 245.899 368.353 245.899 368.39V392.92H250.574V396H237.374V392.92H242.379V360.58H237.374ZM296.685 390.61L297.675 391.93C298.335 392.407 299.233 392.81 300.37 393.14C301.543 393.433 302.827 393.58 304.22 393.58C305.54 393.58 306.75 393.452 307.85 393.195C308.987 392.902 309.977 392.48 310.82 391.93C311.663 391.38 312.323 390.683 312.8 389.84C313.277 388.997 313.515 387.988 313.515 386.815C313.515 385.312 313.002 384.065 311.975 383.075C310.985 382.085 309.738 381.205 308.235 380.435C306.732 379.665 305.1 378.913 303.34 378.18C301.58 377.447 299.948 376.585 298.445 375.595C296.942 374.605 295.677 373.413 294.65 372.02C293.66 370.627 293.165 368.867 293.165 366.74C293.165 363.623 294.338 361.203 296.685 359.48C299.068 357.72 302.277 356.84 306.31 356.84C308.84 356.84 311.022 357.005 312.855 357.335C314.688 357.665 316.247 358.105 317.53 358.655V368.115H314.01V362.175L313.13 360.8C312.433 360.507 311.425 360.287 310.105 360.14C308.785 359.993 307.483 359.92 306.2 359.92C304 359.92 302.277 360.433 301.03 361.46C299.783 362.45 299.16 363.862 299.16 365.695C299.16 367.198 299.655 368.463 300.645 369.49C301.672 370.48 302.937 371.378 304.44 372.185C305.943 372.992 307.575 373.78 309.335 374.55C311.095 375.283 312.727 376.145 314.23 377.135C315.733 378.088 316.98 379.243 317.97 380.6C318.997 381.957 319.51 383.643 319.51 385.66C319.51 389.217 318.135 391.948 315.385 393.855C312.635 395.725 308.877 396.66 304.11 396.66C301.507 396.66 299.252 396.385 297.345 395.835C295.438 395.285 294.045 394.698 293.165 394.075V384.065H296.685V390.61Z" fill="white"/>
<path d="M65.864 439H61.768V438.536C62.184 438.344 62.6107 438.216 63.048 438.152V428.664C62.8347 428.621 62.6213 428.568 62.408 428.504C62.1947 428.429 61.9813 428.349 61.768 428.264V427.8H65.864V428.264C65.672 428.349 65.464 428.429 65.24 428.504C65.016 428.568 64.7973 428.621 64.584 428.664V438.152C64.808 438.195 65.032 438.248 65.256 438.312C65.48 438.376 65.6827 438.451 65.864 438.536V439ZM75.857 439H72.417V438.6C72.705 438.451 73.0197 438.323 73.361 438.216V434.424C73.361 433.613 73.2437 432.973 73.009 432.504C72.7743 432.035 72.3477 431.8 71.729 431.8C71.4623 431.8 71.2117 431.848 70.977 431.944C70.753 432.04 70.5503 432.173 70.369 432.344C70.1983 432.504 70.049 432.691 69.921 432.904C69.793 433.107 69.6917 433.32 69.617 433.544V438.216C69.9477 438.28 70.2677 438.408 70.577 438.6V439H67.121V438.6C67.3877 438.461 67.7397 438.333 68.177 438.216V431.928L67.121 431.8V431.384C67.3983 431.267 67.7183 431.16 68.081 431.064C68.4437 430.968 68.8223 430.883 69.217 430.808H69.617V432.6H69.633C69.857 432.109 70.177 431.688 70.593 431.336C71.0197 430.984 71.5317 430.808 72.129 430.808C72.5557 430.808 72.9343 430.861 73.265 430.968C73.6063 431.064 73.889 431.24 74.113 431.496C74.337 431.752 74.5077 432.099 74.625 432.536C74.7423 432.963 74.801 433.507 74.801 434.168V438.216C75.2277 438.291 75.5797 438.419 75.857 438.6V439ZM76.781 435C76.781 434.328 76.8663 433.736 77.037 433.224C77.2183 432.701 77.4743 432.264 77.805 431.912C78.1357 431.549 78.5303 431.277 78.989 431.096C79.4583 430.904 79.9757 430.808 80.541 430.808C81.2023 430.808 81.773 430.909 82.253 431.112C82.733 431.315 83.1223 431.603 83.421 431.976C83.7303 432.339 83.9543 432.776 84.093 433.288C84.2423 433.8 84.317 434.371 84.317 435C84.317 436.344 83.9757 437.379 83.293 438.104C82.6103 438.829 81.693 439.192 80.541 439.192C79.901 439.192 79.3463 439.096 78.877 438.904C78.4077 438.701 78.0183 438.419 77.709 438.056C77.3997 437.683 77.165 437.24 77.005 436.728C76.8557 436.205 76.781 435.629 76.781 435ZM78.317 435C78.317 435.48 78.3597 435.933 78.445 436.36C78.541 436.787 78.685 437.16 78.877 437.48C79.0797 437.789 79.341 438.035 79.661 438.216C79.981 438.397 80.365 438.488 80.813 438.488C81.389 438.488 81.8583 438.205 82.221 437.64C82.5943 437.075 82.781 436.195 82.781 435C82.781 434.509 82.733 434.056 82.637 433.64C82.5517 433.213 82.413 432.845 82.221 432.536C82.029 432.216 81.7837 431.965 81.485 431.784C81.1863 431.603 80.829 431.512 80.413 431.512C79.7837 431.512 79.277 431.795 78.893 432.36C78.509 432.925 78.317 433.805 78.317 435ZM88.4955 439.192L85.3755 431.8C85.0662 431.693 84.7835 431.565 84.5275 431.416V431H87.8715V431.4C87.7328 431.475 87.5888 431.549 87.4395 431.624C87.3008 431.688 87.1408 431.747 86.9595 431.8L88.8155 436.616L89.1355 437.608H89.1675L89.4075 436.6L91.1195 431.8C90.9488 431.757 90.7888 431.704 90.6395 431.64C90.5008 431.576 90.3675 431.501 90.2395 431.416V431H92.9595V431.416C92.8528 431.491 92.7195 431.56 92.5595 431.624C92.4102 431.688 92.2395 431.747 92.0475 431.8L89.2155 439L88.4955 439.192ZM99.3569 436.904C99.3569 437.139 99.3622 437.341 99.3729 437.512C99.3835 437.683 99.3942 437.864 99.4049 438.056L100.509 438.216V438.552C100.242 438.691 99.9435 438.813 99.6129 438.92C99.2929 439.027 98.9835 439.107 98.6849 439.16H98.2849C98.1782 438.915 98.1142 438.648 98.0929 438.36C98.0715 438.061 98.0555 437.736 98.0449 437.384H97.9649C97.9222 437.597 97.8369 437.816 97.7089 438.04C97.5915 438.253 97.4315 438.445 97.2289 438.616C97.0369 438.787 96.8075 438.925 96.5409 439.032C96.2742 439.139 95.9702 439.192 95.6289 439.192C94.9782 439.192 94.4449 438.995 94.0289 438.6C93.6235 438.205 93.4209 437.688 93.4209 437.048C93.4209 436.557 93.5169 436.157 93.7089 435.848C93.9115 435.528 94.2049 435.277 94.5889 435.096C94.9729 434.915 95.4475 434.787 96.0129 434.712C96.5782 434.627 97.2342 434.563 97.9809 434.52C98.0235 434.061 98.0342 433.651 98.0129 433.288C98.0022 432.915 97.9435 432.6 97.8369 432.344C97.7409 432.077 97.5915 431.875 97.3889 431.736C97.1969 431.587 96.9409 431.512 96.6209 431.512C96.4715 431.512 96.3009 431.523 96.1089 431.544C95.9275 431.555 95.7462 431.597 95.5649 431.672L94.8129 433.592H94.3969C94.2902 433.272 94.1942 432.941 94.1089 432.6C94.0342 432.259 93.9862 431.923 93.9649 431.592C94.3702 431.347 94.8182 431.155 95.3089 431.016C95.8102 430.877 96.3649 430.808 96.9729 430.808C97.5169 430.808 97.9489 430.888 98.2689 431.048C98.5995 431.197 98.8502 431.395 99.0209 431.64C99.1915 431.885 99.3035 432.157 99.3569 432.456C99.4102 432.755 99.4369 433.053 99.4369 433.352C99.4369 433.992 99.4209 434.611 99.3889 435.208C99.3675 435.795 99.3569 436.36 99.3569 436.904ZM96.2689 438.2C96.5355 438.2 96.7702 438.147 96.9729 438.04C97.1755 437.933 97.3462 437.805 97.4849 437.656C97.6235 437.507 97.7355 437.357 97.8209 437.208C97.9062 437.048 97.9649 436.915 97.9969 436.808V435.128C97.3782 435.128 96.8715 435.16 96.4769 435.224C96.0822 435.288 95.7729 435.389 95.5489 435.528C95.3249 435.667 95.1702 435.843 95.0849 436.056C94.9995 436.259 94.9569 436.493 94.9569 436.76C94.9569 437.219 95.0742 437.576 95.3089 437.832C95.5435 438.077 95.8635 438.2 96.2689 438.2ZM110.107 439H106.667V438.6C106.955 438.451 107.27 438.323 107.611 438.216V434.424C107.611 433.613 107.494 432.973 107.259 432.504C107.024 432.035 106.598 431.8 105.979 431.8C105.712 431.8 105.462 431.848 105.227 431.944C105.003 432.04 104.8 432.173 104.619 432.344C104.448 432.504 104.299 432.691 104.171 432.904C104.043 433.107 103.942 433.32 103.867 433.544V438.216C104.198 438.28 104.518 438.408 104.827 438.6V439H101.371V438.6C101.638 438.461 101.99 438.333 102.427 438.216V431.928L101.371 431.8V431.384C101.648 431.267 101.968 431.16 102.331 431.064C102.694 430.968 103.072 430.883 103.467 430.808H103.867V432.6H103.883C104.107 432.109 104.427 431.688 104.843 431.336C105.27 430.984 105.782 430.808 106.379 430.808C106.806 430.808 107.184 430.861 107.515 430.968C107.856 431.064 108.139 431.24 108.363 431.496C108.587 431.752 108.758 432.099 108.875 432.536C108.992 432.963 109.051 433.507 109.051 434.168V438.216C109.478 438.291 109.83 438.419 110.107 438.6V439ZM116.343 437.416C116.29 437.651 116.199 437.875 116.071 438.088C115.943 438.301 115.783 438.493 115.591 438.664C115.41 438.824 115.196 438.952 114.951 439.048C114.716 439.144 114.46 439.192 114.183 439.192C113.127 439.192 112.338 438.856 111.815 438.184C111.292 437.512 111.031 436.467 111.031 435.048C111.031 433.683 111.362 432.643 112.023 431.928C112.695 431.213 113.596 430.856 114.727 430.856C115.122 430.856 115.431 430.877 115.655 430.92C115.879 430.952 116.124 431.016 116.391 431.112V428.088L115.175 427.96V427.544C115.484 427.416 115.842 427.304 116.247 427.208C116.663 427.112 117.058 427.032 117.431 426.968H117.831V438.088L118.887 438.216V438.552C118.578 438.701 118.258 438.829 117.927 438.936C117.596 439.043 117.271 439.117 116.951 439.16H116.551L116.407 437.416H116.343ZM114.503 438.2C115.026 438.2 115.442 438.035 115.751 437.704C116.06 437.373 116.274 436.925 116.391 436.36V431.848C116.21 431.741 115.996 431.667 115.751 431.624C115.506 431.581 115.191 431.56 114.807 431.56C114.082 431.56 113.527 431.88 113.143 432.52C112.759 433.149 112.567 433.992 112.567 435.048C112.567 435.485 112.604 435.896 112.679 436.28C112.754 436.653 112.871 436.984 113.031 437.272C113.191 437.56 113.388 437.789 113.623 437.96C113.868 438.12 114.162 438.2 114.503 438.2ZM119.906 435C119.906 434.328 119.991 433.736 120.162 433.224C120.343 432.701 120.599 432.264 120.93 431.912C121.261 431.549 121.655 431.277 122.114 431.096C122.583 430.904 123.101 430.808 123.666 430.808C124.327 430.808 124.898 430.909 125.378 431.112C125.858 431.315 126.247 431.603 126.546 431.976C126.855 432.339 127.079 432.776 127.218 433.288C127.367 433.8 127.442 434.371 127.442 435C127.442 436.344 127.101 437.379 126.418 438.104C125.735 438.829 124.818 439.192 123.666 439.192C123.026 439.192 122.471 439.096 122.002 438.904C121.533 438.701 121.143 438.419 120.834 438.056C120.525 437.683 120.29 437.24 120.13 436.728C119.981 436.205 119.906 435.629 119.906 435ZM121.442 435C121.442 435.48 121.485 435.933 121.57 436.36C121.666 436.787 121.81 437.16 122.002 437.48C122.205 437.789 122.466 438.035 122.786 438.216C123.106 438.397 123.49 438.488 123.938 438.488C124.514 438.488 124.983 438.205 125.346 437.64C125.719 437.075 125.906 436.195 125.906 435C125.906 434.509 125.858 434.056 125.762 433.64C125.677 433.213 125.538 432.845 125.346 432.536C125.154 432.216 124.909 431.965 124.61 431.784C124.311 431.603 123.954 431.512 123.538 431.512C122.909 431.512 122.402 431.795 122.018 432.36C121.634 432.925 121.442 433.805 121.442 435ZM138.544 436.904C138.544 437.139 138.55 437.341 138.56 437.512C138.571 437.683 138.582 437.864 138.592 438.056L139.696 438.216V438.552C139.43 438.691 139.131 438.813 138.8 438.92C138.48 439.027 138.171 439.107 137.872 439.16H137.472C137.366 438.915 137.302 438.648 137.28 438.36C137.259 438.061 137.243 437.736 137.232 437.384H137.152C137.11 437.597 137.024 437.816 136.896 438.04C136.779 438.253 136.619 438.445 136.416 438.616C136.224 438.787 135.995 438.925 135.728 439.032C135.462 439.139 135.158 439.192 134.816 439.192C134.166 439.192 133.632 438.995 133.216 438.6C132.811 438.205 132.608 437.688 132.608 437.048C132.608 436.557 132.704 436.157 132.896 435.848C133.099 435.528 133.392 435.277 133.776 435.096C134.16 434.915 134.635 434.787 135.2 434.712C135.766 434.627 136.422 434.563 137.168 434.52C137.211 434.061 137.222 433.651 137.2 433.288C137.19 432.915 137.131 432.6 137.024 432.344C136.928 432.077 136.779 431.875 136.576 431.736C136.384 431.587 136.128 431.512 135.808 431.512C135.659 431.512 135.488 431.523 135.296 431.544C135.115 431.555 134.934 431.597 134.752 431.672L134 433.592H133.584C133.478 433.272 133.382 432.941 133.296 432.6C133.222 432.259 133.174 431.923 133.152 431.592C133.558 431.347 134.006 431.155 134.496 431.016C134.998 430.877 135.552 430.808 136.16 430.808C136.704 430.808 137.136 430.888 137.456 431.048C137.787 431.197 138.038 431.395 138.208 431.64C138.379 431.885 138.491 432.157 138.544 432.456C138.598 432.755 138.624 433.053 138.624 433.352C138.624 433.992 138.608 434.611 138.576 435.208C138.555 435.795 138.544 436.36 138.544 436.904ZM135.456 438.2C135.723 438.2 135.958 438.147 136.16 438.04C136.363 437.933 136.534 437.805 136.672 437.656C136.811 437.507 136.923 437.357 137.008 437.208C137.094 437.048 137.152 436.915 137.184 436.808V435.128C136.566 435.128 136.059 435.16 135.664 435.224C135.27 435.288 134.96 435.389 134.736 435.528C134.512 435.667 134.358 435.843 134.272 436.056C134.187 436.259 134.144 436.493 134.144 436.76C134.144 437.219 134.262 437.576 134.496 437.832C134.731 438.077 135.051 438.2 135.456 438.2ZM144.609 435C144.609 434.328 144.694 433.736 144.865 433.224C145.046 432.701 145.302 432.264 145.633 431.912C145.964 431.549 146.358 431.277 146.817 431.096C147.286 430.904 147.804 430.808 148.369 430.808C149.03 430.808 149.601 430.909 150.081 431.112C150.561 431.315 150.95 431.603 151.249 431.976C151.558 432.339 151.782 432.776 151.921 433.288C152.07 433.8 152.145 434.371 152.145 435C152.145 436.344 151.804 437.379 151.121 438.104C150.438 438.829 149.521 439.192 148.369 439.192C147.729 439.192 147.174 439.096 146.705 438.904C146.236 438.701 145.846 438.419 145.537 438.056C145.228 437.683 144.993 437.24 144.833 436.728C144.684 436.205 144.609 435.629 144.609 435ZM146.145 435C146.145 435.48 146.188 435.933 146.273 436.36C146.369 436.787 146.513 437.16 146.705 437.48C146.908 437.789 147.169 438.035 147.489 438.216C147.809 438.397 148.193 438.488 148.641 438.488C149.217 438.488 149.686 438.205 150.049 437.64C150.422 437.075 150.609 436.195 150.609 435C150.609 434.509 150.561 434.056 150.465 433.64C150.38 433.213 150.241 432.845 150.049 432.536C149.857 432.216 149.612 431.965 149.313 431.784C149.014 431.603 148.657 431.512 148.241 431.512C147.612 431.512 147.105 431.795 146.721 432.36C146.337 432.925 146.145 433.805 146.145 435ZM156.701 432.2C156.584 432.264 156.434 432.397 156.253 432.6C156.082 432.792 155.928 433.08 155.789 433.464V438.216C156.002 438.237 156.216 438.28 156.429 438.344C156.642 438.397 156.856 438.483 157.069 438.6V439H153.293V438.6C153.485 438.493 153.666 438.413 153.837 438.36C154.008 438.307 154.178 438.259 154.349 438.216V431.928L153.293 431.8V431.384C153.634 431.235 153.986 431.117 154.349 431.032C154.712 430.936 155.058 430.861 155.389 430.808H155.789V432.504H155.853C155.949 432.291 156.082 432.077 156.253 431.864C156.434 431.651 156.637 431.459 156.861 431.288C157.096 431.117 157.346 430.989 157.613 430.904C157.89 430.808 158.173 430.776 158.461 430.808C158.536 430.947 158.6 431.101 158.653 431.272C158.717 431.432 158.776 431.603 158.829 431.784V432.2H156.701ZM162.89 430.808C163.466 430.808 163.951 430.867 164.346 430.984C164.74 431.091 165.071 431.261 165.338 431.496C165.967 431.069 166.623 430.76 167.306 430.568C167.391 430.685 167.45 430.829 167.482 431C167.524 431.171 167.546 431.331 167.546 431.48L167.338 431.864H165.658C165.924 432.248 166.058 432.755 166.058 433.384C166.058 434.152 165.786 434.776 165.242 435.256C164.708 435.736 163.924 435.976 162.89 435.976C162.687 435.976 162.522 435.971 162.394 435.96C162.266 435.949 162.122 435.933 161.962 435.912C161.908 436.008 161.844 436.115 161.77 436.232C161.706 436.349 161.674 436.472 161.674 436.6C161.674 436.813 161.796 436.984 162.042 437.112C162.287 437.229 162.591 437.336 162.954 437.432C163.327 437.528 163.727 437.629 164.154 437.736C164.591 437.832 164.996 437.971 165.37 438.152C165.743 438.323 166.052 438.552 166.298 438.84C166.554 439.117 166.687 439.48 166.698 439.928C166.708 440.312 166.618 440.659 166.426 440.968C166.244 441.277 165.988 441.533 165.658 441.736C165.327 441.949 164.927 442.109 164.458 442.216C163.999 442.333 163.492 442.392 162.938 442.392C161.775 442.392 160.895 442.195 160.298 441.8C159.711 441.405 159.418 440.909 159.418 440.312C159.418 440.024 159.46 439.773 159.546 439.56C159.642 439.347 159.775 439.16 159.946 439C160.116 438.84 160.33 438.701 160.586 438.584C160.842 438.456 161.135 438.339 161.466 438.232C161.231 438.125 161.034 437.981 160.874 437.8C160.724 437.608 160.65 437.379 160.65 437.112C160.65 436.867 160.751 436.627 160.954 436.392C161.167 436.147 161.38 435.955 161.594 435.816C160.986 435.656 160.516 435.352 160.186 434.904C159.866 434.456 159.706 433.949 159.706 433.384C159.706 433.021 159.775 432.685 159.914 432.376C160.052 432.056 160.255 431.779 160.522 431.544C160.788 431.309 161.119 431.128 161.514 431C161.908 430.872 162.367 430.808 162.89 430.808ZM165.258 440.296C165.258 439.955 165.14 439.683 164.906 439.48C164.682 439.277 164.399 439.112 164.058 438.984C163.716 438.856 163.348 438.749 162.954 438.664C162.559 438.579 162.191 438.483 161.85 438.376C161.444 438.621 161.178 438.877 161.049 439.144C160.922 439.421 160.858 439.704 160.858 439.992C160.858 440.557 161.06 440.979 161.466 441.256C161.871 441.544 162.458 441.688 163.226 441.688C163.62 441.688 163.946 441.651 164.202 441.576C164.468 441.501 164.676 441.4 164.826 441.272C164.986 441.155 165.098 441.011 165.162 440.84C165.226 440.669 165.258 440.488 165.258 440.296ZM161.146 433.384C161.146 433.64 161.172 433.885 161.226 434.12C161.29 434.344 161.386 434.541 161.514 434.712C161.652 434.883 161.834 435.021 162.058 435.128C162.282 435.224 162.559 435.272 162.89 435.272C163.508 435.272 163.951 435.091 164.218 434.728C164.484 434.365 164.618 433.917 164.618 433.384C164.618 432.808 164.484 432.355 164.218 432.024C163.962 431.683 163.519 431.512 162.89 431.512C162.239 431.512 161.786 431.677 161.53 432.008C161.274 432.328 161.146 432.787 161.146 433.384ZM173.919 436.904C173.919 437.139 173.925 437.341 173.935 437.512C173.946 437.683 173.957 437.864 173.967 438.056L175.071 438.216V438.552C174.805 438.691 174.506 438.813 174.175 438.92C173.855 439.027 173.546 439.107 173.247 439.16H172.847C172.741 438.915 172.677 438.648 172.655 438.36C172.634 438.061 172.618 437.736 172.607 437.384H172.527C172.485 437.597 172.399 437.816 172.271 438.04C172.154 438.253 171.994 438.445 171.791 438.616C171.599 438.787 171.37 438.925 171.103 439.032C170.837 439.139 170.533 439.192 170.191 439.192C169.541 439.192 169.007 438.995 168.591 438.6C168.186 438.205 167.983 437.688 167.983 437.048C167.983 436.557 168.079 436.157 168.271 435.848C168.474 435.528 168.767 435.277 169.151 435.096C169.535 434.915 170.01 434.787 170.575 434.712C171.141 434.627 171.797 434.563 172.543 434.52C172.586 434.061 172.597 433.651 172.575 433.288C172.565 432.915 172.506 432.6 172.399 432.344C172.303 432.077 172.154 431.875 171.951 431.736C171.759 431.587 171.503 431.512 171.183 431.512C171.034 431.512 170.863 431.523 170.671 431.544C170.49 431.555 170.309 431.597 170.127 431.672L169.375 433.592H168.959C168.853 433.272 168.757 432.941 168.671 432.6C168.597 432.259 168.549 431.923 168.527 431.592C168.933 431.347 169.381 431.155 169.871 431.016C170.373 430.877 170.927 430.808 171.535 430.808C172.079 430.808 172.511 430.888 172.831 431.048C173.162 431.197 173.413 431.395 173.583 431.64C173.754 431.885 173.866 432.157 173.919 432.456C173.973 432.755 173.999 433.053 173.999 433.352C173.999 433.992 173.983 434.611 173.951 435.208C173.93 435.795 173.919 436.36 173.919 436.904ZM170.831 438.2C171.098 438.2 171.333 438.147 171.535 438.04C171.738 437.933 171.909 437.805 172.047 437.656C172.186 437.507 172.298 437.357 172.383 437.208C172.469 437.048 172.527 436.915 172.559 436.808V435.128C171.941 435.128 171.434 435.16 171.039 435.224C170.645 435.288 170.335 435.389 170.111 435.528C169.887 435.667 169.733 435.843 169.647 436.056C169.562 436.259 169.519 436.493 169.519 436.76C169.519 437.219 169.637 437.576 169.871 437.832C170.106 438.077 170.426 438.2 170.831 438.2ZM184.67 439H181.23V438.6C181.518 438.451 181.832 438.323 182.174 438.216V434.424C182.174 433.613 182.056 432.973 181.822 432.504C181.587 432.035 181.16 431.8 180.542 431.8C180.275 431.8 180.024 431.848 179.79 431.944C179.566 432.04 179.363 432.173 179.182 432.344C179.011 432.504 178.862 432.691 178.734 432.904C178.606 433.107 178.504 433.32 178.43 433.544V438.216C178.76 438.28 179.08 438.408 179.39 438.6V439H175.934V438.6C176.2 438.461 176.552 438.333 176.99 438.216V431.928L175.934 431.8V431.384C176.211 431.267 176.531 431.16 176.894 431.064C177.256 430.968 177.635 430.883 178.03 430.808H178.43V432.6H178.446C178.67 432.109 178.99 431.688 179.406 431.336C179.832 430.984 180.344 430.808 180.942 430.808C181.368 430.808 181.747 430.861 182.078 430.968C182.419 431.064 182.702 431.24 182.926 431.496C183.15 431.752 183.32 432.099 183.438 432.536C183.555 432.963 183.614 433.507 183.614 434.168V438.216C184.04 438.291 184.392 438.419 184.67 438.6V439ZM189.146 439H185.594V438.6C185.754 438.515 185.919 438.445 186.09 438.392C186.26 438.328 186.447 438.269 186.65 438.216V431.928L185.594 431.8V431.384C185.903 431.256 186.239 431.144 186.602 431.048C186.964 430.952 187.327 430.872 187.69 430.808H188.09V438.216C188.303 438.269 188.495 438.328 188.666 438.392C188.836 438.445 188.996 438.515 189.146 438.6V439ZM186.346 428.28C186.346 427.992 186.436 427.763 186.618 427.592C186.81 427.421 187.06 427.336 187.37 427.336C187.679 427.336 187.924 427.421 188.106 427.592C188.287 427.763 188.378 427.992 188.378 428.28C188.378 428.568 188.287 428.797 188.106 428.968C187.924 429.128 187.679 429.208 187.37 429.208C187.06 429.208 186.81 429.128 186.618 428.968C186.436 428.797 186.346 428.568 186.346 428.28ZM196.518 436.264C196.593 436.712 196.646 437.165 196.678 437.624C196.721 438.072 196.731 438.531 196.71 439H190.438V438.6L194.998 431.704H191.974L191.27 433.592H190.87C190.785 433.133 190.731 432.685 190.71 432.248C190.699 431.8 190.694 431.384 190.694 431H196.71V431.416L192.134 438.296H195.254L196.118 436.264H196.518ZM204.123 436.904C204.123 437.139 204.128 437.341 204.139 437.512C204.149 437.683 204.16 437.864 204.171 438.056L205.275 438.216V438.552C205.008 438.691 204.709 438.813 204.379 438.92C204.059 439.027 203.749 439.107 203.451 439.16H203.051C202.944 438.915 202.88 438.648 202.859 438.36C202.837 438.061 202.821 437.736 202.811 437.384H202.731C202.688 437.597 202.603 437.816 202.475 438.04C202.357 438.253 202.197 438.445 201.995 438.616C201.803 438.787 201.573 438.925 201.307 439.032C201.04 439.139 200.736 439.192 200.395 439.192C199.744 439.192 199.211 438.995 198.795 438.6C198.389 438.205 198.187 437.688 198.187 437.048C198.187 436.557 198.283 436.157 198.475 435.848C198.677 435.528 198.971 435.277 199.355 435.096C199.739 434.915 200.213 434.787 200.779 434.712C201.344 434.627 202 434.563 202.747 434.52C202.789 434.061 202.8 433.651 202.779 433.288C202.768 432.915 202.709 432.6 202.603 432.344C202.507 432.077 202.357 431.875 202.155 431.736C201.963 431.587 201.707 431.512 201.387 431.512C201.237 431.512 201.067 431.523 200.875 431.544C200.693 431.555 200.512 431.597 200.331 431.672L199.579 433.592H199.163C199.056 433.272 198.96 432.941 198.875 432.6C198.8 432.259 198.752 431.923 198.731 431.592C199.136 431.347 199.584 431.155 200.075 431.016C200.576 430.877 201.131 430.808 201.739 430.808C202.283 430.808 202.715 430.888 203.035 431.048C203.365 431.197 203.616 431.395 203.787 431.64C203.957 431.885 204.069 432.157 204.123 432.456C204.176 432.755 204.203 433.053 204.203 433.352C204.203 433.992 204.187 434.611 204.155 435.208C204.133 435.795 204.123 436.36 204.123 436.904ZM201.035 438.2C201.301 438.2 201.536 438.147 201.739 438.04C201.941 437.933 202.112 437.805 202.251 437.656C202.389 437.507 202.501 437.357 202.587 437.208C202.672 437.048 202.731 436.915 202.763 436.808V435.128C202.144 435.128 201.637 435.16 201.243 435.224C200.848 435.288 200.539 435.389 200.315 435.528C200.091 435.667 199.936 435.843 199.851 436.056C199.765 436.259 199.723 436.493 199.723 436.76C199.723 437.219 199.84 437.576 200.075 437.832C200.309 438.077 200.629 438.2 201.035 438.2ZM212.473 437.88C212.27 438.264 211.95 438.579 211.513 438.824C211.075 439.069 210.553 439.192 209.945 439.192L209.609 440.088C210.195 440.109 210.617 440.216 210.873 440.408C211.139 440.611 211.283 440.883 211.305 441.224C211.315 441.533 211.235 441.8 211.065 442.024C210.905 442.259 210.697 442.451 210.441 442.6C210.185 442.749 209.902 442.856 209.593 442.92C209.283 442.995 208.985 443.027 208.697 443.016V442.536C209.102 442.483 209.427 442.376 209.673 442.216C209.918 442.056 210.035 441.811 210.025 441.48C210.014 441.213 209.902 441.021 209.689 440.904C209.486 440.787 209.161 440.712 208.713 440.68L209.257 439.128C208.265 438.979 207.523 438.536 207.033 437.8C206.542 437.064 206.297 436.131 206.297 435C206.297 433.645 206.627 432.611 207.289 431.896C207.95 431.171 208.851 430.808 209.993 430.808C210.515 430.808 210.979 430.856 211.385 430.952C211.801 431.037 212.153 431.155 212.441 431.304C212.409 431.656 212.35 432.051 212.265 432.488C212.179 432.925 212.073 433.288 211.945 433.576H211.513L210.841 431.672C210.766 431.619 210.681 431.581 210.585 431.56C210.489 431.528 210.329 431.512 210.105 431.512C209.379 431.512 208.819 431.779 208.425 432.312C208.03 432.835 207.833 433.725 207.833 434.984C207.833 435.389 207.886 435.784 207.993 436.168C208.11 436.552 208.281 436.899 208.505 437.208C208.739 437.507 209.027 437.747 209.369 437.928C209.721 438.109 210.126 438.2 210.585 438.2C210.958 438.2 211.283 438.147 211.561 438.04C211.838 437.933 212.073 437.805 212.265 437.656L212.473 437.88ZM219.654 436.904C219.654 437.139 219.659 437.341 219.67 437.512C219.68 437.683 219.691 437.864 219.702 438.056L220.806 438.216V438.552C220.539 438.691 220.24 438.813 219.91 438.92C219.59 439.027 219.28 439.107 218.982 439.16H218.582C218.475 438.915 218.411 438.648 218.39 438.36C218.368 438.061 218.352 437.736 218.342 437.384H218.262C218.219 437.597 218.134 437.816 218.006 438.04C217.888 438.253 217.728 438.445 217.526 438.616C217.334 438.787 217.104 438.925 216.838 439.032C216.571 439.139 216.267 439.192 215.926 439.192C215.275 439.192 214.742 438.995 214.326 438.6C213.92 438.205 213.718 437.688 213.718 437.048C213.718 436.557 213.814 436.157 214.006 435.848C214.208 435.528 214.502 435.277 214.886 435.096C215.27 434.915 215.744 434.787 216.31 434.712C216.875 434.627 217.531 434.563 218.278 434.52C218.32 434.061 218.331 433.651 218.31 433.288C218.299 432.915 218.24 432.6 218.134 432.344C218.038 432.077 217.888 431.875 217.686 431.736C217.494 431.587 217.238 431.512 216.918 431.512C216.768 431.512 216.598 431.523 216.406 431.544C216.224 431.555 216.043 431.597 215.862 431.672L215.11 433.592H214.694C214.587 433.272 214.491 432.941 214.406 432.6C214.331 432.259 214.283 431.923 214.262 431.592C214.667 431.347 215.115 431.155 215.606 431.016C216.107 430.877 216.662 430.808 217.27 430.808C217.814 430.808 218.246 430.888 218.566 431.048C218.896 431.197 219.147 431.395 219.318 431.64C219.488 431.885 219.6 432.157 219.654 432.456C219.707 432.755 219.734 433.053 219.734 433.352C219.734 433.992 219.718 434.611 219.686 435.208C219.664 435.795 219.654 436.36 219.654 436.904ZM216.566 438.2C216.832 438.2 217.067 438.147 217.27 438.04C217.472 437.933 217.643 437.805 217.782 437.656C217.92 437.507 218.032 437.357 218.118 437.208C218.203 437.048 218.262 436.915 218.294 436.808V435.128C217.675 435.128 217.168 435.16 216.774 435.224C216.379 435.288 216.07 435.389 215.846 435.528C215.622 435.667 215.467 435.843 215.382 436.056C215.296 436.259 215.254 436.493 215.254 436.76C215.254 437.219 215.371 437.576 215.606 437.832C215.84 438.077 216.16 438.2 216.566 438.2ZM219.43 428.248C219.088 428.589 218.774 428.829 218.486 428.968C218.208 429.096 217.947 429.16 217.702 429.16C217.51 429.16 217.328 429.133 217.158 429.08C216.987 429.016 216.822 428.952 216.662 428.888C216.502 428.824 216.342 428.765 216.182 428.712C216.032 428.648 215.878 428.616 215.718 428.616C215.579 428.616 215.435 428.643 215.286 428.696C215.147 428.749 214.992 428.851 214.822 429L214.518 428.552C214.912 428.179 215.264 427.928 215.574 427.8C215.883 427.672 216.16 427.608 216.406 427.608C216.598 427.608 216.774 427.635 216.934 427.688C217.104 427.741 217.264 427.8 217.414 427.864C217.563 427.928 217.712 427.987 217.862 428.04C218.022 428.093 218.182 428.12 218.342 428.12C218.48 428.12 218.619 428.099 218.758 428.056C218.896 428.003 219.051 427.917 219.222 427.8L219.43 428.248ZM221.828 435C221.828 434.328 221.913 433.736 222.084 433.224C222.265 432.701 222.521 432.264 222.852 431.912C223.183 431.549 223.577 431.277 224.036 431.096C224.505 430.904 225.023 430.808 225.588 430.808C226.249 430.808 226.82 430.909 227.3 431.112C227.78 431.315 228.169 431.603 228.468 431.976C228.777 432.339 229.001 432.776 229.14 433.288C229.289 433.8 229.364 434.371 229.364 435C229.364 436.344 229.023 437.379 228.34 438.104C227.657 438.829 226.74 439.192 225.588 439.192C224.948 439.192 224.393 439.096 223.924 438.904C223.455 438.701 223.065 438.419 222.756 438.056C222.447 437.683 222.212 437.24 222.052 436.728C221.903 436.205 221.828 435.629 221.828 435ZM223.364 435C223.364 435.48 223.407 435.933 223.492 436.36C223.588 436.787 223.732 437.16 223.924 437.48C224.127 437.789 224.388 438.035 224.708 438.216C225.028 438.397 225.412 438.488 225.86 438.488C226.436 438.488 226.905 438.205 227.268 437.64C227.641 437.075 227.828 436.195 227.828 435C227.828 434.509 227.78 434.056 227.684 433.64C227.599 433.213 227.46 432.845 227.268 432.536C227.076 432.216 226.831 431.965 226.532 431.784C226.233 431.603 225.876 431.512 225.46 431.512C224.831 431.512 224.324 431.795 223.94 432.36C223.556 432.925 223.364 433.805 223.364 435ZM238.114 439H234.562V438.6C234.914 438.429 235.266 438.301 235.618 438.216V428.088L234.402 427.96V427.544C234.68 427.416 235.026 427.304 235.442 427.208C235.858 427.112 236.264 427.032 236.658 426.968H237.058V438.216C237.41 438.301 237.762 438.429 238.114 438.6V439ZM245.279 436.904C245.279 437.139 245.284 437.341 245.295 437.512C245.305 437.683 245.316 437.864 245.327 438.056L246.431 438.216V438.552C246.164 438.691 245.865 438.813 245.535 438.92C245.215 439.027 244.905 439.107 244.607 439.16H244.207C244.1 438.915 244.036 438.648 244.015 438.36C243.993 438.061 243.977 437.736 243.967 437.384H243.887C243.844 437.597 243.759 437.816 243.631 438.04C243.513 438.253 243.353 438.445 243.151 438.616C242.959 438.787 242.729 438.925 242.463 439.032C242.196 439.139 241.892 439.192 241.551 439.192C240.9 439.192 240.367 438.995 239.951 438.6C239.545 438.205 239.343 437.688 239.343 437.048C239.343 436.557 239.439 436.157 239.631 435.848C239.833 435.528 240.127 435.277 240.511 435.096C240.895 434.915 241.369 434.787 241.935 434.712C242.5 434.627 243.156 434.563 243.903 434.52C243.945 434.061 243.956 433.651 243.935 433.288C243.924 432.915 243.865 432.6 243.759 432.344C243.663 432.077 243.513 431.875 243.311 431.736C243.119 431.587 242.863 431.512 242.543 431.512C242.393 431.512 242.223 431.523 242.031 431.544C241.849 431.555 241.668 431.597 241.487 431.672L240.735 433.592H240.319C240.212 433.272 240.116 432.941 240.031 432.6C239.956 432.259 239.908 431.923 239.887 431.592C240.292 431.347 240.74 431.155 241.231 431.016C241.732 430.877 242.287 430.808 242.895 430.808C243.439 430.808 243.871 430.888 244.191 431.048C244.521 431.197 244.772 431.395 244.943 431.64C245.113 431.885 245.225 432.157 245.279 432.456C245.332 432.755 245.359 433.053 245.359 433.352C245.359 433.992 245.343 434.611 245.311 435.208C245.289 435.795 245.279 436.36 245.279 436.904ZM242.191 438.2C242.457 438.2 242.692 438.147 242.895 438.04C243.097 437.933 243.268 437.805 243.407 437.656C243.545 437.507 243.657 437.357 243.743 437.208C243.828 437.048 243.887 436.915 243.919 436.808V435.128C243.3 435.128 242.793 435.16 242.399 435.224C242.004 435.288 241.695 435.389 241.471 435.528C241.247 435.667 241.092 435.843 241.007 436.056C240.921 436.259 240.879 436.493 240.879 436.76C240.879 437.219 240.996 437.576 241.231 437.832C241.465 438.077 241.785 438.2 242.191 438.2ZM248.029 428.088L246.813 427.96V427.544C247.144 427.405 247.512 427.293 247.917 427.208C248.333 427.123 248.717 427.043 249.069 426.968H249.469V432.584H249.501C249.682 432.04 249.986 431.608 250.413 431.288C250.85 430.968 251.33 430.808 251.853 430.808C252.824 430.808 253.565 431.139 254.077 431.8C254.6 432.461 254.861 433.48 254.861 434.856C254.861 436.264 254.504 437.331 253.789 438.056C253.085 438.781 252.066 439.144 250.733 439.144C250.466 439.144 250.2 439.123 249.933 439.08C249.666 439.048 249.41 439.005 249.165 438.952C248.92 438.899 248.696 438.835 248.493 438.76C248.301 438.685 248.146 438.611 248.029 438.536V428.088ZM251.421 431.8C250.909 431.8 250.493 431.976 250.173 432.328C249.853 432.669 249.618 433.107 249.469 433.64V438.104C249.661 438.211 249.896 438.296 250.173 438.36C250.45 438.413 250.744 438.44 251.053 438.44C251.757 438.44 252.312 438.136 252.717 437.528C253.122 436.909 253.325 436.019 253.325 434.856C253.325 434.44 253.288 434.045 253.213 433.672C253.149 433.299 253.037 432.973 252.877 432.696C252.728 432.419 252.53 432.2 252.285 432.04C252.05 431.88 251.762 431.8 251.421 431.8ZM256.172 435C256.172 434.328 256.257 433.736 256.428 433.224C256.609 432.701 256.865 432.264 257.196 431.912C257.526 431.549 257.921 431.277 258.38 431.096C258.849 430.904 259.366 430.808 259.932 430.808C260.593 430.808 261.164 430.909 261.644 431.112C262.124 431.315 262.513 431.603 262.812 431.976C263.121 432.339 263.345 432.776 263.484 433.288C263.633 433.8 263.708 434.371 263.708 435C263.708 436.344 263.366 437.379 262.684 438.104C262.001 438.829 261.084 439.192 259.932 439.192C259.292 439.192 258.737 439.096 258.268 438.904C257.798 438.701 257.409 438.419 257.1 438.056C256.79 437.683 256.556 437.24 256.396 436.728C256.246 436.205 256.172 435.629 256.172 435ZM257.708 435C257.708 435.48 257.75 435.933 257.836 436.36C257.932 436.787 258.076 437.16 258.268 437.48C258.47 437.789 258.732 438.035 259.052 438.216C259.372 438.397 259.756 438.488 260.204 438.488C260.78 438.488 261.249 438.205 261.612 437.64C261.985 437.075 262.172 436.195 262.172 435C262.172 434.509 262.124 434.056 262.028 433.64C261.942 433.213 261.804 432.845 261.612 432.536C261.42 432.216 261.174 431.965 260.876 431.784C260.577 431.603 260.22 431.512 259.804 431.512C259.174 431.512 258.668 431.795 258.284 432.36C257.9 432.925 257.708 433.805 257.708 435ZM268.263 432.2C268.146 432.264 267.997 432.397 267.815 432.6C267.645 432.792 267.49 433.08 267.351 433.464V438.216C267.565 438.237 267.778 438.28 267.991 438.344C268.205 438.397 268.418 438.483 268.631 438.6V439H264.855V438.6C265.047 438.493 265.229 438.413 265.399 438.36C265.57 438.307 265.741 438.259 265.911 438.216V431.928L264.855 431.8V431.384C265.197 431.235 265.549 431.117 265.911 431.032C266.274 430.936 266.621 430.861 266.951 430.808H267.351V432.504H267.415C267.511 432.291 267.645 432.077 267.815 431.864C267.997 431.651 268.199 431.459 268.423 431.288C268.658 431.117 268.909 430.989 269.175 430.904C269.453 430.808 269.735 430.776 270.023 430.808C270.098 430.947 270.162 431.101 270.215 431.272C270.279 431.432 270.338 431.603 270.391 431.784V432.2H268.263ZM277.06 436.904C277.06 437.139 277.065 437.341 277.076 437.512C277.087 437.683 277.097 437.864 277.108 438.056L278.212 438.216V438.552C277.945 438.691 277.647 438.813 277.316 438.92C276.996 439.027 276.687 439.107 276.388 439.16H275.988C275.881 438.915 275.817 438.648 275.796 438.36C275.775 438.061 275.759 437.736 275.748 437.384H275.668C275.625 437.597 275.54 437.816 275.412 438.04C275.295 438.253 275.135 438.445 274.932 438.616C274.74 438.787 274.511 438.925 274.244 439.032C273.977 439.139 273.673 439.192 273.332 439.192C272.681 439.192 272.148 438.995 271.732 438.6C271.327 438.205 271.124 437.688 271.124 437.048C271.124 436.557 271.22 436.157 271.412 435.848C271.615 435.528 271.908 435.277 272.292 435.096C272.676 434.915 273.151 434.787 273.716 434.712C274.281 434.627 274.937 434.563 275.684 434.52C275.727 434.061 275.737 433.651 275.716 433.288C275.705 432.915 275.647 432.6 275.54 432.344C275.444 432.077 275.295 431.875 275.092 431.736C274.9 431.587 274.644 431.512 274.324 431.512C274.175 431.512 274.004 431.523 273.812 431.544C273.631 431.555 273.449 431.597 273.268 431.672L272.516 433.592H272.1C271.993 433.272 271.897 432.941 271.812 432.6C271.737 432.259 271.689 431.923 271.668 431.592C272.073 431.347 272.521 431.155 273.012 431.016C273.513 430.877 274.068 430.808 274.676 430.808C275.22 430.808 275.652 430.888 275.972 431.048C276.303 431.197 276.553 431.395 276.724 431.64C276.895 431.885 277.007 432.157 277.06 432.456C277.113 432.755 277.14 433.053 277.14 433.352C277.14 433.992 277.124 434.611 277.092 435.208C277.071 435.795 277.06 436.36 277.06 436.904ZM273.972 438.2C274.239 438.2 274.473 438.147 274.676 438.04C274.879 437.933 275.049 437.805 275.188 437.656C275.327 437.507 275.439 437.357 275.524 437.208C275.609 437.048 275.668 436.915 275.7 436.808V435.128C275.081 435.128 274.575 435.16 274.18 435.224C273.785 435.288 273.476 435.389 273.252 435.528C273.028 435.667 272.873 435.843 272.788 436.056C272.703 436.259 272.66 436.493 272.66 436.76C272.66 437.219 272.777 437.576 273.012 437.832C273.247 438.077 273.567 438.2 273.972 438.2ZM278.818 431.384C279.223 431.128 279.65 430.947 280.098 430.84V429.48C280.237 429.363 280.397 429.261 280.578 429.176C280.77 429.08 280.957 428.989 281.138 428.904H281.538V431H283.938V431.8H281.538V436.44C281.538 437.08 281.639 437.533 281.842 437.8C282.045 438.067 282.349 438.2 282.754 438.2C282.946 438.2 283.186 438.189 283.474 438.168C283.762 438.136 284.007 438.083 284.21 438.008L284.322 438.248C284.237 438.344 284.114 438.445 283.954 438.552C283.805 438.659 283.629 438.76 283.426 438.856C283.234 438.952 283.021 439.032 282.786 439.096C282.551 439.16 282.311 439.192 282.066 439.192C281.426 439.192 280.935 439.011 280.594 438.648C280.263 438.285 280.098 437.699 280.098 436.888V431.8H278.818V431.384ZM285.172 435C285.172 434.328 285.257 433.736 285.428 433.224C285.609 432.701 285.865 432.264 286.196 431.912C286.526 431.549 286.921 431.277 287.38 431.096C287.849 430.904 288.366 430.808 288.932 430.808C289.593 430.808 290.164 430.909 290.644 431.112C291.124 431.315 291.513 431.603 291.812 431.976C292.121 432.339 292.345 432.776 292.484 433.288C292.633 433.8 292.708 434.371 292.708 435C292.708 436.344 292.366 437.379 291.684 438.104C291.001 438.829 290.084 439.192 288.932 439.192C288.292 439.192 287.737 439.096 287.268 438.904C286.798 438.701 286.409 438.419 286.1 438.056C285.79 437.683 285.556 437.24 285.396 436.728C285.246 436.205 285.172 435.629 285.172 435ZM286.708 435C286.708 435.48 286.75 435.933 286.836 436.36C286.932 436.787 287.076 437.16 287.268 437.48C287.47 437.789 287.732 438.035 288.052 438.216C288.372 438.397 288.756 438.488 289.204 438.488C289.78 438.488 290.249 438.205 290.612 437.64C290.985 437.075 291.172 436.195 291.172 435C291.172 434.509 291.124 434.056 291.028 433.64C290.942 433.213 290.804 432.845 290.612 432.536C290.42 432.216 290.174 431.965 289.876 431.784C289.577 431.603 289.22 431.512 288.804 431.512C288.174 431.512 287.668 431.795 287.284 432.36C286.9 432.925 286.708 433.805 286.708 435ZM297.263 432.2C297.146 432.264 296.997 432.397 296.815 432.6C296.645 432.792 296.49 433.08 296.351 433.464V438.216C296.565 438.237 296.778 438.28 296.991 438.344C297.205 438.397 297.418 438.483 297.631 438.6V439H293.855V438.6C294.047 438.493 294.229 438.413 294.399 438.36C294.57 438.307 294.741 438.259 294.911 438.216V431.928L293.855 431.8V431.384C294.197 431.235 294.549 431.117 294.911 431.032C295.274 430.936 295.621 430.861 295.951 430.808H296.351V432.504H296.415C296.511 432.291 296.645 432.077 296.815 431.864C296.997 431.651 297.199 431.459 297.423 431.288C297.658 431.117 297.909 430.989 298.175 430.904C298.453 430.808 298.735 430.776 299.023 430.808C299.098 430.947 299.162 431.101 299.215 431.272C299.279 431.432 299.338 431.603 299.391 431.784V432.2H297.263ZM303.708 439H300.156V438.6C300.316 438.515 300.481 438.445 300.652 438.392C300.823 438.328 301.009 438.269 301.212 438.216V431.928L300.156 431.8V431.384C300.465 431.256 300.801 431.144 301.164 431.048C301.527 430.952 301.889 430.872 302.252 430.808H302.652V438.216C302.865 438.269 303.057 438.328 303.228 438.392C303.399 438.445 303.559 438.515 303.708 438.6V439ZM300.908 428.28C300.908 427.992 300.999 427.763 301.18 427.592C301.372 427.421 301.623 427.336 301.932 427.336C302.241 427.336 302.487 427.421 302.668 427.592C302.849 427.763 302.94 427.992 302.94 428.28C302.94 428.568 302.849 428.797 302.668 428.968C302.487 429.128 302.241 429.208 301.932 429.208C301.623 429.208 301.372 429.128 301.18 428.968C300.999 428.797 300.908 428.568 300.908 428.28ZM310.873 436.904C310.873 437.139 310.878 437.341 310.889 437.512C310.899 437.683 310.91 437.864 310.921 438.056L312.025 438.216V438.552C311.758 438.691 311.459 438.813 311.129 438.92C310.809 439.027 310.499 439.107 310.201 439.16H309.801C309.694 438.915 309.63 438.648 309.609 438.36C309.587 438.061 309.571 437.736 309.561 437.384H309.481C309.438 437.597 309.353 437.816 309.225 438.04C309.107 438.253 308.947 438.445 308.745 438.616C308.553 438.787 308.323 438.925 308.057 439.032C307.79 439.139 307.486 439.192 307.145 439.192C306.494 439.192 305.961 438.995 305.545 438.6C305.139 438.205 304.937 437.688 304.937 437.048C304.937 436.557 305.033 436.157 305.225 435.848C305.427 435.528 305.721 435.277 306.105 435.096C306.489 434.915 306.963 434.787 307.529 434.712C308.094 434.627 308.75 434.563 309.497 434.52C309.539 434.061 309.55 433.651 309.529 433.288C309.518 432.915 309.459 432.6 309.353 432.344C309.257 432.077 309.107 431.875 308.905 431.736C308.713 431.587 308.457 431.512 308.137 431.512C307.987 431.512 307.817 431.523 307.625 431.544C307.443 431.555 307.262 431.597 307.081 431.672L306.329 433.592H305.913C305.806 433.272 305.71 432.941 305.625 432.6C305.55 432.259 305.502 431.923 305.481 431.592C305.886 431.347 306.334 431.155 306.825 431.016C307.326 430.877 307.881 430.808 308.489 430.808C309.033 430.808 309.465 430.888 309.785 431.048C310.115 431.197 310.366 431.395 310.537 431.64C310.707 431.885 310.819 432.157 310.873 432.456C310.926 432.755 310.953 433.053 310.953 433.352C310.953 433.992 310.937 434.611 310.905 435.208C310.883 435.795 310.873 436.36 310.873 436.904ZM307.785 438.2C308.051 438.2 308.286 438.147 308.489 438.04C308.691 437.933 308.862 437.805 309.001 437.656C309.139 437.507 309.251 437.357 309.337 437.208C309.422 437.048 309.481 436.915 309.513 436.808V435.128C308.894 435.128 308.387 435.16 307.993 435.224C307.598 435.288 307.289 435.389 307.065 435.528C306.841 435.667 306.686 435.843 306.601 436.056C306.515 436.259 306.473 436.493 306.473 436.76C306.473 437.219 306.59 437.576 306.825 437.832C307.059 438.077 307.379 438.2 307.785 438.2ZM316.599 439H313.047V438.6C313.399 438.429 313.751 438.301 314.103 438.216V428.088L312.887 427.96V427.544C313.164 427.416 313.511 427.304 313.927 427.208C314.343 427.112 314.748 427.032 315.143 426.968H315.543V438.216C315.895 438.301 316.247 438.429 316.599 438.6V439ZM318.339 438.088C318.339 437.768 318.44 437.512 318.643 437.32C318.846 437.128 319.107 437.032 319.427 437.032C319.758 437.032 320.024 437.128 320.227 437.32C320.43 437.512 320.531 437.768 320.531 438.088C320.531 438.397 320.43 438.648 320.227 438.84C320.024 439.032 319.758 439.128 319.427 439.128C319.107 439.128 318.846 439.032 318.643 438.84C318.44 438.648 318.339 438.397 318.339 438.088Z" fill="white"/>
</svg>
